<?xml version="1.0" encoding="utf-8" standalone="no"?>
<!DOCTYPE svg PUBLIC "-//W3C//DTD SVG 1.1//EN"
  "http://www.w3.org/Graphics/SVG/1.1/DTD/svg11.dtd">
<svg xmlns:xlink="http://www.w3.org/1999/xlink" width="576pt" height="360pt" viewBox="0 0 576 360" xmlns="http://www.w3.org/2000/svg" version="1.1">
 <metadata>
  <rdf:RDF xmlns:dc="http://purl.org/dc/elements/1.1/" xmlns:cc="http://creativecommons.org/ns#" xmlns:rdf="http://www.w3.org/1999/02/22-rdf-syntax-ns#">
   <cc:Work>
    <dc:type rdf:resource="http://purl.org/dc/dcmitype/StillImage"/>
    <dc:date>2023-10-11T12:41:46.633571</dc:date>
    <dc:format>image/svg+xml</dc:format>
    <dc:creator>
     <cc:Agent>
      <dc:title>Matplotlib v3.7.2, https://matplotlib.org/</dc:title>
     </cc:Agent>
    </dc:creator>
   </cc:Work>
  </rdf:RDF>
 </metadata>
 <defs>
  <style type="text/css">*{stroke-linejoin: round; stroke-linecap: butt}</style>
 </defs>
 <g id="figure_1">
  <g id="patch_1">
   <path d="M 0 360 
L 576 360 
L 576 0 
L 0 0 
z
" style="fill: #ffffff"/>
  </g>
  <g id="axes_1">
   <g id="patch_2">
    <path d="M 72 320.4 
L 518.4 320.4 
L 518.4 43.2 
L 72 43.2 
z
" style="fill: #ffffff"/>
   </g>
   <g id="patch_3">
    <path d="M 144.19343 320.4 
L 167.42521 320.4 
L 167.42521 304.700834 
L 144.19343 304.700834 
z
" clip-path="url(#pde6cad9edf)" style="fill: #bf00bf; opacity: 0.4"/>
   </g>
   <g id="patch_4">
    <path d="M 167.42521 320.4 
L 190.65699 320.4 
L 190.65699 292.926459 
L 167.42521 292.926459 
z
" clip-path="url(#pde6cad9edf)" style="fill: #bf00bf; opacity: 0.4"/>
   </g>
   <g id="patch_5">
    <path d="M 190.65699 320.4 
L 213.88877 320.4 
L 213.88877 201.347989 
L 190.65699 201.347989 
z
" clip-path="url(#pde6cad9edf)" style="fill: #bf00bf; opacity: 0.4"/>
   </g>
   <g id="patch_6">
    <path d="M 213.88877 320.4 
L 237.12055 320.4 
L 237.12055 62.67202 
L 213.88877 62.67202 
z
" clip-path="url(#pde6cad9edf)" style="fill: #bf00bf; opacity: 0.4"/>
   </g>
   <g id="patch_7">
    <path d="M 237.12055 320.4 
L 260.35233 320.4 
L 260.35233 115.002574 
L 237.12055 115.002574 
z
" clip-path="url(#pde6cad9edf)" style="fill: #bf00bf; opacity: 0.4"/>
   </g>
   <g id="patch_8">
    <path d="M 260.35233 320.4 
L 283.58411 320.4 
L 283.58411 179.107503 
L 260.35233 179.107503 
z
" clip-path="url(#pde6cad9edf)" style="fill: #bf00bf; opacity: 0.4"/>
   </g>
   <g id="patch_9">
    <path d="M 283.58411 320.4 
L 306.81589 320.4 
L 306.81589 228.82153 
L 283.58411 228.82153 
z
" clip-path="url(#pde6cad9edf)" style="fill: #bf00bf; opacity: 0.4"/>
   </g>
   <g id="patch_10">
    <path d="M 306.81589 320.4 
L 330.04767 320.4 
L 330.04767 207.889308 
L 306.81589 207.889308 
z
" clip-path="url(#pde6cad9edf)" style="fill: #bf00bf; opacity: 0.4"/>
   </g>
   <g id="patch_11">
    <path d="M 330.04767 320.4 
L 353.27945 320.4 
L 353.27945 231.438058 
L 330.04767 231.438058 
z
" clip-path="url(#pde6cad9edf)" style="fill: #bf00bf; opacity: 0.4"/>
   </g>
   <g id="patch_12">
    <path d="M 353.27945 320.4 
L 376.51123 320.4 
L 376.51123 200.039725 
L 353.27945 200.039725 
z
" clip-path="url(#pde6cad9edf)" style="fill: #bf00bf; opacity: 0.4"/>
   </g>
   <g id="patch_13">
    <path d="M 376.51123 320.4 
L 399.74301 320.4 
L 399.74301 205.27278 
L 376.51123 205.27278 
z
" clip-path="url(#pde6cad9edf)" style="fill: #bf00bf; opacity: 0.4"/>
   </g>
   <g id="patch_14">
    <path d="M 399.74301 320.4 
L 422.97479 320.4 
L 422.97479 265.452918 
L 399.74301 265.452918 
z
" clip-path="url(#pde6cad9edf)" style="fill: #bf00bf; opacity: 0.4"/>
   </g>
   <g id="patch_15">
    <path d="M 422.97479 320.4 
L 446.20657 320.4 
L 446.20657 279.84382 
L 422.97479 279.84382 
z
" clip-path="url(#pde6cad9edf)" style="fill: #bf00bf; opacity: 0.4"/>
   </g>
   <g id="patch_16">
    <path d="M 141.422301 320.4 
L 159.339237 320.4 
L 159.339237 308.614286 
L 141.422301 308.614286 
z
" clip-path="url(#pde6cad9edf)" style="fill: #008000; opacity: 0.4"/>
   </g>
   <g id="patch_17">
    <path d="M 159.339237 320.4 
L 177.256174 320.4 
L 177.256174 306.257143 
L 159.339237 306.257143 
z
" clip-path="url(#pde6cad9edf)" style="fill: #008000; opacity: 0.4"/>
   </g>
   <g id="patch_18">
    <path d="M 177.256174 320.4 
L 195.173111 320.4 
L 195.173111 310.971429 
L 177.256174 310.971429 
z
" clip-path="url(#pde6cad9edf)" style="fill: #008000; opacity: 0.4"/>
   </g>
   <g id="patch_19">
    <path d="M 195.173111 320.4 
L 213.090047 320.4 
L 213.090047 194.292857 
L 195.173111 194.292857 
z
" clip-path="url(#pde6cad9edf)" style="fill: #008000; opacity: 0.4"/>
   </g>
   <g id="patch_20">
    <path d="M 213.090047 320.4 
L 231.006984 320.4 
L 231.006984 92.935714 
L 213.090047 92.935714 
z
" clip-path="url(#pde6cad9edf)" style="fill: #008000; opacity: 0.4"/>
   </g>
   <g id="patch_21">
    <path d="M 231.006984 320.4 
L 248.92392 320.4 
L 248.92392 115.328571 
L 231.006984 115.328571 
z
" clip-path="url(#pde6cad9edf)" style="fill: #008000; opacity: 0.4"/>
   </g>
   <g id="patch_22">
    <path d="M 248.92392 320.4 
L 266.840857 320.4 
L 266.840857 56.4 
L 248.92392 56.4 
z
" clip-path="url(#pde6cad9edf)" style="fill: #008000; opacity: 0.4"/>
   </g>
   <g id="patch_23">
    <path d="M 266.840857 320.4 
L 284.757794 320.4 
L 284.757794 188.4 
L 266.840857 188.4 
z
" clip-path="url(#pde6cad9edf)" style="fill: #008000; opacity: 0.4"/>
   </g>
   <g id="patch_24">
    <path d="M 284.757794 320.4 
L 302.67473 320.4 
L 302.67473 241.435714 
L 284.757794 241.435714 
z
" clip-path="url(#pde6cad9edf)" style="fill: #008000; opacity: 0.4"/>
   </g>
   <g id="patch_25">
    <path d="M 302.67473 320.4 
L 320.591667 320.4 
L 320.591667 189.578571 
L 302.67473 189.578571 
z
" clip-path="url(#pde6cad9edf)" style="fill: #008000; opacity: 0.4"/>
   </g>
   <g id="patch_26">
    <path d="M 320.591667 320.4 
L 338.508603 320.4 
L 338.508603 197.828571 
L 320.591667 197.828571 
z
" clip-path="url(#pde6cad9edf)" style="fill: #008000; opacity: 0.4"/>
   </g>
   <g id="patch_27">
    <path d="M 338.508603 320.4 
L 356.42554 320.4 
L 356.42554 239.078571 
L 338.508603 239.078571 
z
" clip-path="url(#pde6cad9edf)" style="fill: #008000; opacity: 0.4"/>
   </g>
   <g id="patch_28">
    <path d="M 356.42554 320.4 
L 374.342477 320.4 
L 374.342477 229.65 
L 356.42554 229.65 
z
" clip-path="url(#pde6cad9edf)" style="fill: #008000; opacity: 0.4"/>
   </g>
   <g id="patch_29">
    <path d="M 374.342477 320.4 
L 392.259413 320.4 
L 392.259413 202.542857 
L 374.342477 202.542857 
z
" clip-path="url(#pde6cad9edf)" style="fill: #008000; opacity: 0.4"/>
   </g>
   <g id="patch_30">
    <path d="M 392.259413 320.4 
L 410.17635 320.4 
L 410.17635 223.757143 
L 392.259413 223.757143 
z
" clip-path="url(#pde6cad9edf)" style="fill: #008000; opacity: 0.4"/>
   </g>
   <g id="patch_31">
    <path d="M 410.17635 320.4 
L 428.093286 320.4 
L 428.093286 250.864286 
L 410.17635 250.864286 
z
" clip-path="url(#pde6cad9edf)" style="fill: #008000; opacity: 0.4"/>
   </g>
   <g id="patch_32">
    <path d="M 428.093286 320.4 
L 446.010223 320.4 
L 446.010223 295.65 
L 428.093286 295.65 
z
" clip-path="url(#pde6cad9edf)" style="fill: #008000; opacity: 0.4"/>
   </g>
   <g id="matplotlib.axis_1">
    <g id="text_1">
     <!-- AP distribution -->
     <g transform="translate(258.682813 331.998438) scale(0.1 -0.1)">
      <defs>
       <path id="DejaVuSans-41" d="M 2188 4044 
L 1331 1722 
L 3047 1722 
L 2188 4044 
z
M 1831 4666 
L 2547 4666 
L 4325 0 
L 3669 0 
L 3244 1197 
L 1141 1197 
L 716 0 
L 50 0 
L 1831 4666 
z
" transform="scale(0.015625)"/>
       <path id="DejaVuSans-50" d="M 1259 4147 
L 1259 2394 
L 2053 2394 
Q 2494 2394 2734 2622 
Q 2975 2850 2975 3272 
Q 2975 3691 2734 3919 
Q 2494 4147 2053 4147 
L 1259 4147 
z
M 628 4666 
L 2053 4666 
Q 2838 4666 3239 4311 
Q 3641 3956 3641 3272 
Q 3641 2581 3239 2228 
Q 2838 1875 2053 1875 
L 1259 1875 
L 1259 0 
L 628 0 
L 628 4666 
z
" transform="scale(0.015625)"/>
       <path id="DejaVuSans-20" transform="scale(0.015625)"/>
       <path id="DejaVuSans-64" d="M 2906 2969 
L 2906 4863 
L 3481 4863 
L 3481 0 
L 2906 0 
L 2906 525 
Q 2725 213 2448 61 
Q 2172 -91 1784 -91 
Q 1150 -91 751 415 
Q 353 922 353 1747 
Q 353 2572 751 3078 
Q 1150 3584 1784 3584 
Q 2172 3584 2448 3432 
Q 2725 3281 2906 2969 
z
M 947 1747 
Q 947 1113 1208 752 
Q 1469 391 1925 391 
Q 2381 391 2643 752 
Q 2906 1113 2906 1747 
Q 2906 2381 2643 2742 
Q 2381 3103 1925 3103 
Q 1469 3103 1208 2742 
Q 947 2381 947 1747 
z
" transform="scale(0.015625)"/>
       <path id="DejaVuSans-69" d="M 603 3500 
L 1178 3500 
L 1178 0 
L 603 0 
L 603 3500 
z
M 603 4863 
L 1178 4863 
L 1178 4134 
L 603 4134 
L 603 4863 
z
" transform="scale(0.015625)"/>
       <path id="DejaVuSans-73" d="M 2834 3397 
L 2834 2853 
Q 2591 2978 2328 3040 
Q 2066 3103 1784 3103 
Q 1356 3103 1142 2972 
Q 928 2841 928 2578 
Q 928 2378 1081 2264 
Q 1234 2150 1697 2047 
L 1894 2003 
Q 2506 1872 2764 1633 
Q 3022 1394 3022 966 
Q 3022 478 2636 193 
Q 2250 -91 1575 -91 
Q 1294 -91 989 -36 
Q 684 19 347 128 
L 347 722 
Q 666 556 975 473 
Q 1284 391 1588 391 
Q 1994 391 2212 530 
Q 2431 669 2431 922 
Q 2431 1156 2273 1281 
Q 2116 1406 1581 1522 
L 1381 1569 
Q 847 1681 609 1914 
Q 372 2147 372 2553 
Q 372 3047 722 3315 
Q 1072 3584 1716 3584 
Q 2034 3584 2315 3537 
Q 2597 3491 2834 3397 
z
" transform="scale(0.015625)"/>
       <path id="DejaVuSans-74" d="M 1172 4494 
L 1172 3500 
L 2356 3500 
L 2356 3053 
L 1172 3053 
L 1172 1153 
Q 1172 725 1289 603 
Q 1406 481 1766 481 
L 2356 481 
L 2356 0 
L 1766 0 
Q 1100 0 847 248 
Q 594 497 594 1153 
L 594 3053 
L 172 3053 
L 172 3500 
L 594 3500 
L 594 4494 
L 1172 4494 
z
" transform="scale(0.015625)"/>
       <path id="DejaVuSans-72" d="M 2631 2963 
Q 2534 3019 2420 3045 
Q 2306 3072 2169 3072 
Q 1681 3072 1420 2755 
Q 1159 2438 1159 1844 
L 1159 0 
L 581 0 
L 581 3500 
L 1159 3500 
L 1159 2956 
Q 1341 3275 1631 3429 
Q 1922 3584 2338 3584 
Q 2397 3584 2469 3576 
Q 2541 3569 2628 3553 
L 2631 2963 
z
" transform="scale(0.015625)"/>
       <path id="DejaVuSans-62" d="M 3116 1747 
Q 3116 2381 2855 2742 
Q 2594 3103 2138 3103 
Q 1681 3103 1420 2742 
Q 1159 2381 1159 1747 
Q 1159 1113 1420 752 
Q 1681 391 2138 391 
Q 2594 391 2855 752 
Q 3116 1113 3116 1747 
z
M 1159 2969 
Q 1341 3281 1617 3432 
Q 1894 3584 2278 3584 
Q 2916 3584 3314 3078 
Q 3713 2572 3713 1747 
Q 3713 922 3314 415 
Q 2916 -91 2278 -91 
Q 1894 -91 1617 61 
Q 1341 213 1159 525 
L 1159 0 
L 581 0 
L 581 4863 
L 1159 4863 
L 1159 2969 
z
" transform="scale(0.015625)"/>
       <path id="DejaVuSans-75" d="M 544 1381 
L 544 3500 
L 1119 3500 
L 1119 1403 
Q 1119 906 1312 657 
Q 1506 409 1894 409 
Q 2359 409 2629 706 
Q 2900 1003 2900 1516 
L 2900 3500 
L 3475 3500 
L 3475 0 
L 2900 0 
L 2900 538 
Q 2691 219 2414 64 
Q 2138 -91 1772 -91 
Q 1169 -91 856 284 
Q 544 659 544 1381 
z
M 1991 3584 
L 1991 3584 
z
" transform="scale(0.015625)"/>
       <path id="DejaVuSans-6f" d="M 1959 3097 
Q 1497 3097 1228 2736 
Q 959 2375 959 1747 
Q 959 1119 1226 758 
Q 1494 397 1959 397 
Q 2419 397 2687 759 
Q 2956 1122 2956 1747 
Q 2956 2369 2687 2733 
Q 2419 3097 1959 3097 
z
M 1959 3584 
Q 2709 3584 3137 3096 
Q 3566 2609 3566 1747 
Q 3566 888 3137 398 
Q 2709 -91 1959 -91 
Q 1206 -91 779 398 
Q 353 888 353 1747 
Q 353 2609 779 3096 
Q 1206 3584 1959 3584 
z
" transform="scale(0.015625)"/>
       <path id="DejaVuSans-6e" d="M 3513 2113 
L 3513 0 
L 2938 0 
L 2938 2094 
Q 2938 2591 2744 2837 
Q 2550 3084 2163 3084 
Q 1697 3084 1428 2787 
Q 1159 2491 1159 1978 
L 1159 0 
L 581 0 
L 581 3500 
L 1159 3500 
L 1159 2956 
Q 1366 3272 1645 3428 
Q 1925 3584 2291 3584 
Q 2894 3584 3203 3211 
Q 3513 2838 3513 2113 
z
" transform="scale(0.015625)"/>
      </defs>
      <use xlink:href="#DejaVuSans-41"/>
      <use xlink:href="#DejaVuSans-50" x="68.408203"/>
      <use xlink:href="#DejaVuSans-20" x="128.710938"/>
      <use xlink:href="#DejaVuSans-64" x="160.498047"/>
      <use xlink:href="#DejaVuSans-69" x="223.974609"/>
      <use xlink:href="#DejaVuSans-73" x="251.757812"/>
      <use xlink:href="#DejaVuSans-74" x="303.857422"/>
      <use xlink:href="#DejaVuSans-72" x="343.066406"/>
      <use xlink:href="#DejaVuSans-69" x="384.179688"/>
      <use xlink:href="#DejaVuSans-62" x="411.962891"/>
      <use xlink:href="#DejaVuSans-75" x="475.439453"/>
      <use xlink:href="#DejaVuSans-74" x="538.818359"/>
      <use xlink:href="#DejaVuSans-69" x="578.027344"/>
      <use xlink:href="#DejaVuSans-6f" x="605.810547"/>
      <use xlink:href="#DejaVuSans-6e" x="666.992188"/>
     </g>
    </g>
   </g>
   <g id="matplotlib.axis_2">
    <g id="ytick_1">
     <g id="line2d_1">
      <defs>
       <path id="mb75858ae0d" d="M 0 0 
L -3.5 0 
" style="stroke: #000000; stroke-width: 0.8"/>
      </defs>
      <g>
       <use xlink:href="#mb75858ae0d" x="72" y="320.4" style="stroke: #000000; stroke-width: 0.8"/>
      </g>
     </g>
     <g id="text_2">
      <!-- 0.00 -->
      <g transform="translate(42.734375 324.199219) scale(0.1 -0.1)">
       <defs>
        <path id="DejaVuSans-30" d="M 2034 4250 
Q 1547 4250 1301 3770 
Q 1056 3291 1056 2328 
Q 1056 1369 1301 889 
Q 1547 409 2034 409 
Q 2525 409 2770 889 
Q 3016 1369 3016 2328 
Q 3016 3291 2770 3770 
Q 2525 4250 2034 4250 
z
M 2034 4750 
Q 2819 4750 3233 4129 
Q 3647 3509 3647 2328 
Q 3647 1150 3233 529 
Q 2819 -91 2034 -91 
Q 1250 -91 836 529 
Q 422 1150 422 2328 
Q 422 3509 836 4129 
Q 1250 4750 2034 4750 
z
" transform="scale(0.015625)"/>
        <path id="DejaVuSans-2e" d="M 684 794 
L 1344 794 
L 1344 0 
L 684 0 
L 684 794 
z
" transform="scale(0.015625)"/>
       </defs>
       <use xlink:href="#DejaVuSans-30"/>
       <use xlink:href="#DejaVuSans-2e" x="63.623047"/>
       <use xlink:href="#DejaVuSans-30" x="95.410156"/>
       <use xlink:href="#DejaVuSans-30" x="159.033203"/>
      </g>
     </g>
    </g>
    <g id="ytick_2">
     <g id="line2d_2">
      <g>
       <use xlink:href="#mb75858ae0d" x="72" y="275.111743" style="stroke: #000000; stroke-width: 0.8"/>
      </g>
     </g>
     <g id="text_3">
      <!-- 0.02 -->
      <g transform="translate(42.734375 278.910962) scale(0.1 -0.1)">
       <defs>
        <path id="DejaVuSans-32" d="M 1228 531 
L 3431 531 
L 3431 0 
L 469 0 
L 469 531 
Q 828 903 1448 1529 
Q 2069 2156 2228 2338 
Q 2531 2678 2651 2914 
Q 2772 3150 2772 3378 
Q 2772 3750 2511 3984 
Q 2250 4219 1831 4219 
Q 1534 4219 1204 4116 
Q 875 4013 500 3803 
L 500 4441 
Q 881 4594 1212 4672 
Q 1544 4750 1819 4750 
Q 2544 4750 2975 4387 
Q 3406 4025 3406 3419 
Q 3406 3131 3298 2873 
Q 3191 2616 2906 2266 
Q 2828 2175 2409 1742 
Q 1991 1309 1228 531 
z
" transform="scale(0.015625)"/>
       </defs>
       <use xlink:href="#DejaVuSans-30"/>
       <use xlink:href="#DejaVuSans-2e" x="63.623047"/>
       <use xlink:href="#DejaVuSans-30" x="95.410156"/>
       <use xlink:href="#DejaVuSans-32" x="159.033203"/>
      </g>
     </g>
    </g>
    <g id="ytick_3">
     <g id="line2d_3">
      <g>
       <use xlink:href="#mb75858ae0d" x="72" y="229.823486" style="stroke: #000000; stroke-width: 0.8"/>
      </g>
     </g>
     <g id="text_4">
      <!-- 0.04 -->
      <g transform="translate(42.734375 233.622704) scale(0.1 -0.1)">
       <defs>
        <path id="DejaVuSans-34" d="M 2419 4116 
L 825 1625 
L 2419 1625 
L 2419 4116 
z
M 2253 4666 
L 3047 4666 
L 3047 1625 
L 3713 1625 
L 3713 1100 
L 3047 1100 
L 3047 0 
L 2419 0 
L 2419 1100 
L 313 1100 
L 313 1709 
L 2253 4666 
z
" transform="scale(0.015625)"/>
       </defs>
       <use xlink:href="#DejaVuSans-30"/>
       <use xlink:href="#DejaVuSans-2e" x="63.623047"/>
       <use xlink:href="#DejaVuSans-30" x="95.410156"/>
       <use xlink:href="#DejaVuSans-34" x="159.033203"/>
      </g>
     </g>
    </g>
    <g id="ytick_4">
     <g id="line2d_4">
      <g>
       <use xlink:href="#mb75858ae0d" x="72" y="184.535229" style="stroke: #000000; stroke-width: 0.8"/>
      </g>
     </g>
     <g id="text_5">
      <!-- 0.06 -->
      <g transform="translate(42.734375 188.334447) scale(0.1 -0.1)">
       <defs>
        <path id="DejaVuSans-36" d="M 2113 2584 
Q 1688 2584 1439 2293 
Q 1191 2003 1191 1497 
Q 1191 994 1439 701 
Q 1688 409 2113 409 
Q 2538 409 2786 701 
Q 3034 994 3034 1497 
Q 3034 2003 2786 2293 
Q 2538 2584 2113 2584 
z
M 3366 4563 
L 3366 3988 
Q 3128 4100 2886 4159 
Q 2644 4219 2406 4219 
Q 1781 4219 1451 3797 
Q 1122 3375 1075 2522 
Q 1259 2794 1537 2939 
Q 1816 3084 2150 3084 
Q 2853 3084 3261 2657 
Q 3669 2231 3669 1497 
Q 3669 778 3244 343 
Q 2819 -91 2113 -91 
Q 1303 -91 875 529 
Q 447 1150 447 2328 
Q 447 3434 972 4092 
Q 1497 4750 2381 4750 
Q 2619 4750 2861 4703 
Q 3103 4656 3366 4563 
z
" transform="scale(0.015625)"/>
       </defs>
       <use xlink:href="#DejaVuSans-30"/>
       <use xlink:href="#DejaVuSans-2e" x="63.623047"/>
       <use xlink:href="#DejaVuSans-30" x="95.410156"/>
       <use xlink:href="#DejaVuSans-36" x="159.033203"/>
      </g>
     </g>
    </g>
    <g id="ytick_5">
     <g id="line2d_5">
      <g>
       <use xlink:href="#mb75858ae0d" x="72" y="139.246971" style="stroke: #000000; stroke-width: 0.8"/>
      </g>
     </g>
     <g id="text_6">
      <!-- 0.08 -->
      <g transform="translate(42.734375 143.04619) scale(0.1 -0.1)">
       <defs>
        <path id="DejaVuSans-38" d="M 2034 2216 
Q 1584 2216 1326 1975 
Q 1069 1734 1069 1313 
Q 1069 891 1326 650 
Q 1584 409 2034 409 
Q 2484 409 2743 651 
Q 3003 894 3003 1313 
Q 3003 1734 2745 1975 
Q 2488 2216 2034 2216 
z
M 1403 2484 
Q 997 2584 770 2862 
Q 544 3141 544 3541 
Q 544 4100 942 4425 
Q 1341 4750 2034 4750 
Q 2731 4750 3128 4425 
Q 3525 4100 3525 3541 
Q 3525 3141 3298 2862 
Q 3072 2584 2669 2484 
Q 3125 2378 3379 2068 
Q 3634 1759 3634 1313 
Q 3634 634 3220 271 
Q 2806 -91 2034 -91 
Q 1263 -91 848 271 
Q 434 634 434 1313 
Q 434 1759 690 2068 
Q 947 2378 1403 2484 
z
M 1172 3481 
Q 1172 3119 1398 2916 
Q 1625 2713 2034 2713 
Q 2441 2713 2670 2916 
Q 2900 3119 2900 3481 
Q 2900 3844 2670 4047 
Q 2441 4250 2034 4250 
Q 1625 4250 1398 4047 
Q 1172 3844 1172 3481 
z
" transform="scale(0.015625)"/>
       </defs>
       <use xlink:href="#DejaVuSans-30"/>
       <use xlink:href="#DejaVuSans-2e" x="63.623047"/>
       <use xlink:href="#DejaVuSans-30" x="95.410156"/>
       <use xlink:href="#DejaVuSans-38" x="159.033203"/>
      </g>
     </g>
    </g>
    <g id="ytick_6">
     <g id="line2d_6">
      <g>
       <use xlink:href="#mb75858ae0d" x="72" y="93.958714" style="stroke: #000000; stroke-width: 0.8"/>
      </g>
     </g>
     <g id="text_7">
      <!-- 0.10 -->
      <g transform="translate(42.734375 97.757933) scale(0.1 -0.1)">
       <defs>
        <path id="DejaVuSans-31" d="M 794 531 
L 1825 531 
L 1825 4091 
L 703 3866 
L 703 4441 
L 1819 4666 
L 2450 4666 
L 2450 531 
L 3481 531 
L 3481 0 
L 794 0 
L 794 531 
z
" transform="scale(0.015625)"/>
       </defs>
       <use xlink:href="#DejaVuSans-30"/>
       <use xlink:href="#DejaVuSans-2e" x="63.623047"/>
       <use xlink:href="#DejaVuSans-31" x="95.410156"/>
       <use xlink:href="#DejaVuSans-30" x="159.033203"/>
      </g>
     </g>
    </g>
    <g id="ytick_7">
     <g id="line2d_7">
      <g>
       <use xlink:href="#mb75858ae0d" x="72" y="48.670457" style="stroke: #000000; stroke-width: 0.8"/>
      </g>
     </g>
     <g id="text_8">
      <!-- 0.12 -->
      <g transform="translate(42.734375 52.469676) scale(0.1 -0.1)">
       <use xlink:href="#DejaVuSans-30"/>
       <use xlink:href="#DejaVuSans-2e" x="63.623047"/>
       <use xlink:href="#DejaVuSans-31" x="95.410156"/>
       <use xlink:href="#DejaVuSans-32" x="159.033203"/>
      </g>
     </g>
    </g>
    <g id="text_9">
     <!-- Density -->
     <g transform="translate(36.654687 200.808594) rotate(-90) scale(0.1 -0.1)">
      <defs>
       <path id="DejaVuSans-44" d="M 1259 4147 
L 1259 519 
L 2022 519 
Q 2988 519 3436 956 
Q 3884 1394 3884 2338 
Q 3884 3275 3436 3711 
Q 2988 4147 2022 4147 
L 1259 4147 
z
M 628 4666 
L 1925 4666 
Q 3281 4666 3915 4102 
Q 4550 3538 4550 2338 
Q 4550 1131 3912 565 
Q 3275 0 1925 0 
L 628 0 
L 628 4666 
z
" transform="scale(0.015625)"/>
       <path id="DejaVuSans-65" d="M 3597 1894 
L 3597 1613 
L 953 1613 
Q 991 1019 1311 708 
Q 1631 397 2203 397 
Q 2534 397 2845 478 
Q 3156 559 3463 722 
L 3463 178 
Q 3153 47 2828 -22 
Q 2503 -91 2169 -91 
Q 1331 -91 842 396 
Q 353 884 353 1716 
Q 353 2575 817 3079 
Q 1281 3584 2069 3584 
Q 2775 3584 3186 3129 
Q 3597 2675 3597 1894 
z
M 3022 2063 
Q 3016 2534 2758 2815 
Q 2500 3097 2075 3097 
Q 1594 3097 1305 2825 
Q 1016 2553 972 2059 
L 3022 2063 
z
" transform="scale(0.015625)"/>
       <path id="DejaVuSans-79" d="M 2059 -325 
Q 1816 -950 1584 -1140 
Q 1353 -1331 966 -1331 
L 506 -1331 
L 506 -850 
L 844 -850 
Q 1081 -850 1212 -737 
Q 1344 -625 1503 -206 
L 1606 56 
L 191 3500 
L 800 3500 
L 1894 763 
L 2988 3500 
L 3597 3500 
L 2059 -325 
z
" transform="scale(0.015625)"/>
      </defs>
      <use xlink:href="#DejaVuSans-44"/>
      <use xlink:href="#DejaVuSans-65" x="77.001953"/>
      <use xlink:href="#DejaVuSans-6e" x="138.525391"/>
      <use xlink:href="#DejaVuSans-73" x="201.904297"/>
      <use xlink:href="#DejaVuSans-69" x="254.003906"/>
      <use xlink:href="#DejaVuSans-74" x="281.787109"/>
      <use xlink:href="#DejaVuSans-79" x="320.996094"/>
     </g>
    </g>
   </g>
   <g id="line2d_8">
    <path d="M 92.290909 320.380591 
L 104.526633 320.241384 
L 110.644495 320.013715 
L 116.762357 319.551261 
L 120.840932 319.042792 
L 124.919507 318.320524 
L 128.998081 317.342366 
L 133.076656 316.077176 
L 137.155231 314.510105 
L 141.233805 312.643815 
L 145.31238 310.493216 
L 149.390955 308.072537 
L 153.469529 305.375548 
L 157.548104 302.352078 
L 161.626679 298.886258 
L 163.665966 296.92976 
L 165.705254 294.783349 
L 167.744541 292.410723 
L 169.783828 289.77203 
L 171.823116 286.825077 
L 173.862403 283.526854 
L 175.90169 279.835313 
L 177.940978 275.711333 
L 179.980265 271.120785 
L 182.019552 266.036586 
L 184.05884 260.440642 
L 186.098127 254.325583 
L 188.137414 247.696198 
L 190.176702 240.570492 
L 194.255276 224.971544 
L 198.333851 207.949327 
L 210.569575 155.262035 
L 212.608862 147.328464 
L 214.64815 139.907977 
L 216.687437 133.085159 
L 218.726725 126.931326 
L 220.766012 121.502525 
L 222.805299 116.8383 
L 224.844587 112.961313 
L 226.883874 109.877868 
L 228.923161 107.579293 
L 230.962449 106.044051 
L 233.001736 105.240382 
L 235.041023 105.129222 
L 237.080311 105.667124 
L 239.119598 106.808911 
L 241.158885 108.509826 
L 243.198173 110.727028 
L 245.23746 113.420334 
L 247.276747 116.55225 
L 249.316035 120.087351 
L 251.355322 123.991193 
L 253.394609 128.228952 
L 257.473184 137.556605 
L 261.551759 147.734634 
L 271.748196 174.079752 
L 275.82677 183.690999 
L 277.866058 188.060967 
L 279.905345 192.077072 
L 281.944632 195.703563 
L 283.98392 198.916409 
L 286.023207 201.704783 
L 288.062494 204.072009 
L 290.101782 206.035857 
L 292.141069 207.628044 
L 294.180356 208.892893 
L 296.219644 209.885126 
L 298.258931 210.666893 
L 302.337506 211.86275 
L 306.41608 212.982154 
L 310.494655 214.40218 
L 314.57323 216.287419 
L 318.651804 218.563914 
L 324.769667 222.088663 
L 326.808954 223.103308 
L 328.848241 223.959337 
L 330.887529 224.617066 
L 332.926816 225.044721 
L 334.966103 225.219617 
L 337.005391 225.128658 
L 339.044678 224.768246 
L 341.083965 224.143754 
L 343.123253 223.268729 
L 345.16254 222.163972 
L 347.201827 220.856631 
L 351.280402 217.769779 
L 361.476839 209.31558 
L 363.516126 207.895485 
L 365.555413 206.686804 
L 367.594701 205.738163 
L 369.633988 205.093436 
L 371.673275 204.789907 
L 373.712563 204.856567 
L 375.75185 205.3127 
L 377.791138 206.16689 
L 379.830425 207.416559 
L 381.869712 209.048086 
L 383.909 211.037525 
L 385.948287 213.351884 
L 387.987574 215.95087 
L 390.026862 218.788999 
L 394.105436 224.98877 
L 410.419735 250.968355 
L 416.537597 259.959587 
L 430.812608 280.715315 
L 438.969758 292.571573 
L 443.048333 298.100501 
L 447.126907 303.11888 
L 449.166195 305.38851 
L 451.205482 307.479973 
L 453.244769 309.384887 
L 455.284057 311.099442 
L 457.323344 312.624264 
L 459.362631 313.964048 
L 461.401919 315.127015 
L 463.441206 316.12424 
L 465.480493 316.968932 
L 467.519781 317.675692 
L 471.598355 318.736705 
L 475.67693 319.427607 
L 479.755505 319.85599 
L 485.873367 320.190632 
L 494.030516 320.349996 
L 498.109091 320.377196 
L 498.109091 320.377196 
" clip-path="url(#pde6cad9edf)" style="fill: none; stroke: #bf00bf; stroke-width: 1.5; stroke-linecap: square"/>
   </g>
   <g id="line2d_9">
    <path d="M 94.455654 320.386499 
L 106.471369 320.27459 
L 114.481846 319.979431 
L 120.489703 319.491244 
L 124.494942 318.973142 
L 128.50018 318.265139 
L 132.505418 317.351471 
L 136.510657 316.238323 
L 142.518514 314.272178 
L 158.539468 308.553797 
L 162.544706 306.958878 
L 164.547325 306.025255 
L 166.549944 304.943356 
L 168.552564 303.660995 
L 170.555183 302.12037 
L 172.557802 300.26006 
L 174.560421 298.017496 
L 176.56304 295.331755 
L 178.565659 292.146509 
L 180.568279 288.412919 
L 182.570898 284.092267 
L 184.573517 279.158134 
L 186.576136 273.597984 
L 188.578755 267.414066 
L 190.581374 260.623633 
L 192.583994 253.258541 
L 194.586613 245.364347 
L 198.591851 228.231703 
L 202.597089 209.812807 
L 210.607566 172.050228 
L 214.612804 154.29898 
L 216.615424 146.039432 
L 218.618043 138.297211 
L 220.620662 131.13577 
L 222.623281 124.602467 
L 224.6259 118.7273 
L 226.62852 113.522993 
L 228.631139 108.986605 
L 230.633758 105.102623 
L 232.636377 101.847306 
L 234.638996 99.193801 
L 236.641615 97.117418 
L 238.644235 95.600364 
L 240.646854 94.635248 
L 242.649473 94.22682 
L 244.652092 94.391604 
L 246.654711 95.155402 
L 248.65733 96.548923 
L 250.65995 98.602073 
L 252.662569 101.337643 
L 254.665188 104.765239 
L 256.667807 108.876212 
L 258.670426 113.640277 
L 260.673045 119.004184 
L 262.675665 124.892574 
L 266.680903 137.849448 
L 276.693999 171.65571 
L 278.696618 177.752756 
L 280.699237 183.412719 
L 282.701856 188.569917 
L 284.704476 193.173264 
L 286.707095 197.186436 
L 288.709714 200.588058 
L 290.712333 203.371984 
L 292.714952 205.547599 
L 294.717571 207.13997 
L 296.720191 208.189637 
L 298.72281 208.751815 
L 300.725429 208.894889 
L 302.728048 208.698125 
L 304.730667 208.248686 
L 308.735906 206.958553 
L 312.741144 205.741594 
L 314.743763 205.359027 
L 316.746382 205.211726 
L 318.749002 205.346364 
L 320.751621 205.794765 
L 322.75424 206.573436 
L 324.756859 207.683597 
L 326.759478 209.111604 
L 328.762097 210.829698 
L 330.764717 212.797069 
L 334.769955 217.259597 
L 340.777812 224.230204 
L 342.780432 226.319147 
L 344.783051 228.163458 
L 346.78567 229.695242 
L 348.788289 230.856959 
L 350.790908 231.604467 
L 352.793527 231.909587 
L 354.796147 231.761999 
L 356.798766 231.17029 
L 358.801385 230.162052 
L 360.804004 228.782961 
L 362.806623 227.094869 
L 366.811862 223.102305 
L 370.8171 218.87913 
L 372.819719 216.908309 
L 374.822338 215.143901 
L 376.824958 213.6586 
L 378.827577 212.512423 
L 380.830196 211.750949 
L 382.832815 211.404454 
L 384.835434 211.487929 
L 386.838053 212.001892 
L 388.840673 212.933884 
L 390.843292 214.260494 
L 392.845911 215.949756 
L 394.84853 217.963758 
L 396.851149 220.261299 
L 398.853768 222.800445 
L 402.859007 228.44576 
L 406.864245 234.628369 
L 410.869484 241.169624 
L 416.877341 251.494946 
L 422.885199 262.413207 
L 430.895675 277.656341 
L 436.903533 288.89252 
L 440.908771 295.802096 
L 442.91139 298.981339 
L 444.914009 301.939972 
L 446.916629 304.657568 
L 448.919248 307.120555 
L 450.921867 309.322528 
L 452.924486 311.264088 
L 454.927105 312.952257 
L 456.929725 314.399577 
L 458.932344 315.622979 
L 460.934963 316.642541 
L 462.937582 317.480249 
L 464.940201 318.158844 
L 466.94282 318.700816 
L 470.948059 319.458978 
L 474.953297 319.904253 
L 480.961155 320.22749 
L 488.971631 320.364633 
L 492.97687 320.385168 
L 492.97687 320.385168 
" clip-path="url(#pde6cad9edf)" style="fill: none; stroke: #008000; stroke-width: 1.5; stroke-linecap: square"/>
   </g>
   <g id="patch_33">
    <path d="M 72 320.4 
L 72 43.2 
" style="fill: none; stroke: #000000; stroke-width: 0.8; stroke-linejoin: miter; stroke-linecap: square"/>
   </g>
   <g id="patch_34">
    <path d="M 518.4 320.4 
L 518.4 43.2 
" style="fill: none; stroke: #000000; stroke-width: 0.8; stroke-linejoin: miter; stroke-linecap: square"/>
   </g>
   <g id="patch_35">
    <path d="M 72 320.4 
L 518.4 320.4 
" style="fill: none; stroke: #000000; stroke-width: 0.8; stroke-linejoin: miter; stroke-linecap: square"/>
   </g>
   <g id="patch_36">
    <path d="M 72 43.2 
L 518.4 43.2 
" style="fill: none; stroke: #000000; stroke-width: 0.8; stroke-linejoin: miter; stroke-linecap: square"/>
   </g>
  </g>
 </g>
 <defs>
  <clipPath id="pde6cad9edf">
   <rect x="72" y="43.2" width="446.4" height="277.2"/>
  </clipPath>
 </defs>
</svg>
