<?xml version="1.0" encoding="utf-8" standalone="no"?>
<!DOCTYPE svg PUBLIC "-//W3C//DTD SVG 1.1//EN"
  "http://www.w3.org/Graphics/SVG/1.1/DTD/svg11.dtd">
<svg xmlns:xlink="http://www.w3.org/1999/xlink" width="576pt" height="360pt" viewBox="0 0 576 360" xmlns="http://www.w3.org/2000/svg" version="1.1">
 <metadata>
  <rdf:RDF xmlns:dc="http://purl.org/dc/elements/1.1/" xmlns:cc="http://creativecommons.org/ns#" xmlns:rdf="http://www.w3.org/1999/02/22-rdf-syntax-ns#">
   <cc:Work>
    <dc:type rdf:resource="http://purl.org/dc/dcmitype/StillImage"/>
    <dc:date>2023-10-11T12:41:46.425139</dc:date>
    <dc:format>image/svg+xml</dc:format>
    <dc:creator>
     <cc:Agent>
      <dc:title>Matplotlib v3.7.2, https://matplotlib.org/</dc:title>
     </cc:Agent>
    </dc:creator>
   </cc:Work>
  </rdf:RDF>
 </metadata>
 <defs>
  <style type="text/css">*{stroke-linejoin: round; stroke-linecap: butt}</style>
 </defs>
 <g id="figure_1">
  <g id="patch_1">
   <path d="M 0 360 
L 576 360 
L 576 0 
L 0 0 
z
" style="fill: #ffffff"/>
  </g>
  <g id="axes_1">
   <g id="patch_2">
    <path d="M 72 320.4 
L 518.4 320.4 
L 518.4 43.2 
L 72 43.2 
z
" style="fill: #ffffff"/>
   </g>
   <g id="patch_3">
    <path d="M 146.877777 320.4 
L 166.9885 320.4 
L 166.9885 304.295568 
L 146.877777 304.295568 
z
" clip-path="url(#p413be0ed61)" style="fill: #bf00bf; opacity: 0.4"/>
   </g>
   <g id="patch_4">
    <path d="M 166.9885 320.4 
L 187.099223 320.4 
L 187.099223 252.591866 
L 166.9885 252.591866 
z
" clip-path="url(#p413be0ed61)" style="fill: #bf00bf; opacity: 0.4"/>
   </g>
   <g id="patch_5">
    <path d="M 187.099223 320.4 
L 207.209946 320.4 
L 207.209946 127.994418 
L 187.099223 127.994418 
z
" clip-path="url(#p413be0ed61)" style="fill: #bf00bf; opacity: 0.4"/>
   </g>
   <g id="patch_6">
    <path d="M 207.209946 320.4 
L 227.320669 320.4 
L 227.320669 184.783731 
L 207.209946 184.783731 
z
" clip-path="url(#p413be0ed61)" style="fill: #bf00bf; opacity: 0.4"/>
   </g>
   <g id="patch_7">
    <path d="M 227.320669 320.4 
L 247.431392 320.4 
L 247.431392 266.153492 
L 227.320669 266.153492 
z
" clip-path="url(#p413be0ed61)" style="fill: #bf00bf; opacity: 0.4"/>
   </g>
   <g id="patch_8">
    <path d="M 247.431392 320.4 
L 267.542115 320.4 
L 267.542115 269.543899 
L 247.431392 269.543899 
z
" clip-path="url(#p413be0ed61)" style="fill: #bf00bf; opacity: 0.4"/>
   </g>
   <g id="patch_9">
    <path d="M 267.542115 320.4 
L 287.652838 320.4 
L 287.652838 251.744264 
L 267.542115 251.744264 
z
" clip-path="url(#p413be0ed61)" style="fill: #bf00bf; opacity: 0.4"/>
   </g>
   <g id="patch_10">
    <path d="M 287.652838 320.4 
L 307.763561 320.4 
L 307.763561 223.773408 
L 287.652838 223.773408 
z
" clip-path="url(#p413be0ed61)" style="fill: #bf00bf; opacity: 0.4"/>
   </g>
   <g id="patch_11">
    <path d="M 307.763561 320.4 
L 327.874284 320.4 
L 327.874284 263.610687 
L 307.763561 263.610687 
z
" clip-path="url(#p413be0ed61)" style="fill: #bf00bf; opacity: 0.4"/>
   </g>
   <g id="patch_12">
    <path d="M 327.874284 320.4 
L 347.985007 320.4 
L 347.985007 285.648331 
L 327.874284 285.648331 
z
" clip-path="url(#p413be0ed61)" style="fill: #bf00bf; opacity: 0.4"/>
   </g>
   <g id="patch_13">
    <path d="M 347.985007 320.4 
L 368.09573 320.4 
L 368.09573 261.067882 
L 347.985007 261.067882 
z
" clip-path="url(#p413be0ed61)" style="fill: #bf00bf; opacity: 0.4"/>
   </g>
   <g id="patch_14">
    <path d="M 368.09573 320.4 
L 388.206453 320.4 
L 388.206453 275.477111 
L 368.09573 275.477111 
z
" clip-path="url(#p413be0ed61)" style="fill: #bf00bf; opacity: 0.4"/>
   </g>
   <g id="patch_15">
    <path d="M 388.206453 320.4 
L 408.317176 320.4 
L 408.317176 311.076382 
L 388.206453 311.076382 
z
" clip-path="url(#p413be0ed61)" style="fill: #bf00bf; opacity: 0.4"/>
   </g>
   <g id="patch_16">
    <path d="M 408.317176 320.4 
L 428.427899 320.4 
L 428.427899 312.771585 
L 408.317176 312.771585 
z
" clip-path="url(#p413be0ed61)" style="fill: #bf00bf; opacity: 0.4"/>
   </g>
   <g id="patch_17">
    <path d="M 428.427899 320.4 
L 448.538622 320.4 
L 448.538622 314.466788 
L 428.427899 314.466788 
z
" clip-path="url(#p413be0ed61)" style="fill: #bf00bf; opacity: 0.4"/>
   </g>
   <g id="patch_18">
    <path d="M 136.314365 320.4 
L 151.925578 320.4 
L 151.925578 300.675862 
L 136.314365 300.675862 
z
" clip-path="url(#p413be0ed61)" style="fill: #008000; opacity: 0.4"/>
   </g>
   <g id="patch_19">
    <path d="M 151.925578 320.4 
L 167.536791 320.4 
L 167.536791 303.710345 
L 151.925578 303.710345 
z
" clip-path="url(#p413be0ed61)" style="fill: #008000; opacity: 0.4"/>
   </g>
   <g id="patch_20">
    <path d="M 167.536791 320.4 
L 183.148004 320.4 
L 183.148004 230.124138 
L 167.536791 230.124138 
z
" clip-path="url(#p413be0ed61)" style="fill: #008000; opacity: 0.4"/>
   </g>
   <g id="patch_21">
    <path d="M 183.148004 320.4 
L 198.759217 320.4 
L 198.759217 173.986207 
L 183.148004 173.986207 
z
" clip-path="url(#p413be0ed61)" style="fill: #008000; opacity: 0.4"/>
   </g>
   <g id="patch_22">
    <path d="M 198.759217 320.4 
L 214.370429 320.4 
L 214.370429 56.4 
L 198.759217 56.4 
z
" clip-path="url(#p413be0ed61)" style="fill: #008000; opacity: 0.4"/>
   </g>
   <g id="patch_23">
    <path d="M 214.370429 320.4 
L 229.981642 320.4 
L 229.981642 200.537931 
L 214.370429 200.537931 
z
" clip-path="url(#p413be0ed61)" style="fill: #008000; opacity: 0.4"/>
   </g>
   <g id="patch_24">
    <path d="M 229.981642 320.4 
L 245.592855 320.4 
L 245.592855 255.158621 
L 229.981642 255.158621 
z
" clip-path="url(#p413be0ed61)" style="fill: #008000; opacity: 0.4"/>
   </g>
   <g id="patch_25">
    <path d="M 245.592855 320.4 
L 261.204068 320.4 
L 261.204068 261.986207 
L 245.592855 261.986207 
z
" clip-path="url(#p413be0ed61)" style="fill: #008000; opacity: 0.4"/>
   </g>
   <g id="patch_26">
    <path d="M 261.204068 320.4 
L 276.815281 320.4 
L 276.815281 286.262069 
L 261.204068 286.262069 
z
" clip-path="url(#p413be0ed61)" style="fill: #008000; opacity: 0.4"/>
   </g>
   <g id="patch_27">
    <path d="M 276.815281 320.4 
L 292.426493 320.4 
L 292.426493 243.77931 
L 276.815281 243.77931 
z
" clip-path="url(#p413be0ed61)" style="fill: #008000; opacity: 0.4"/>
   </g>
   <g id="patch_28">
    <path d="M 292.426493 320.4 
L 308.037706 320.4 
L 308.037706 261.227586 
L 292.426493 261.227586 
z
" clip-path="url(#p413be0ed61)" style="fill: #008000; opacity: 0.4"/>
   </g>
   <g id="patch_29">
    <path d="M 308.037706 320.4 
L 323.648919 320.4 
L 323.648919 287.77931 
L 308.037706 287.77931 
z
" clip-path="url(#p413be0ed61)" style="fill: #008000; opacity: 0.4"/>
   </g>
   <g id="patch_30">
    <path d="M 323.648919 320.4 
L 339.260132 320.4 
L 339.260132 290.813793 
L 323.648919 290.813793 
z
" clip-path="url(#p413be0ed61)" style="fill: #008000; opacity: 0.4"/>
   </g>
   <g id="patch_31">
    <path d="M 339.260132 320.4 
L 354.871345 320.4 
L 354.871345 290.055172 
L 339.260132 290.055172 
z
" clip-path="url(#p413be0ed61)" style="fill: #008000; opacity: 0.4"/>
   </g>
   <g id="patch_32">
    <path d="M 354.871345 320.4 
L 370.482558 320.4 
L 370.482558 256.675862 
L 354.871345 256.675862 
z
" clip-path="url(#p413be0ed61)" style="fill: #008000; opacity: 0.4"/>
   </g>
   <g id="patch_33">
    <path d="M 370.482558 320.4 
L 386.09377 320.4 
L 386.09377 284.744828 
L 370.482558 284.744828 
z
" clip-path="url(#p413be0ed61)" style="fill: #008000; opacity: 0.4"/>
   </g>
   <g id="patch_34">
    <path d="M 386.09377 320.4 
L 401.704983 320.4 
L 401.704983 312.055172 
L 386.09377 312.055172 
z
" clip-path="url(#p413be0ed61)" style="fill: #008000; opacity: 0.4"/>
   </g>
   <g id="patch_35">
    <path d="M 401.704983 320.4 
L 417.316196 320.4 
L 417.316196 315.848276 
L 401.704983 315.848276 
z
" clip-path="url(#p413be0ed61)" style="fill: #008000; opacity: 0.4"/>
   </g>
   <g id="patch_36">
    <path d="M 417.316196 320.4 
L 432.927409 320.4 
L 432.927409 318.124138 
L 417.316196 318.124138 
z
" clip-path="url(#p413be0ed61)" style="fill: #008000; opacity: 0.4"/>
   </g>
   <g id="patch_37">
    <path d="M 432.927409 320.4 
L 448.538622 320.4 
L 448.538622 317.365517 
L 432.927409 317.365517 
z
" clip-path="url(#p413be0ed61)" style="fill: #008000; opacity: 0.4"/>
   </g>
   <g id="matplotlib.axis_1">
    <g id="text_1">
     <!-- DV distribution -->
     <g transform="translate(257.935156 331.998438) scale(0.1 -0.1)">
      <defs>
       <path id="DejaVuSans-44" d="M 1259 4147 
L 1259 519 
L 2022 519 
Q 2988 519 3436 956 
Q 3884 1394 3884 2338 
Q 3884 3275 3436 3711 
Q 2988 4147 2022 4147 
L 1259 4147 
z
M 628 4666 
L 1925 4666 
Q 3281 4666 3915 4102 
Q 4550 3538 4550 2338 
Q 4550 1131 3912 565 
Q 3275 0 1925 0 
L 628 0 
L 628 4666 
z
" transform="scale(0.015625)"/>
       <path id="DejaVuSans-56" d="M 1831 0 
L 50 4666 
L 709 4666 
L 2188 738 
L 3669 4666 
L 4325 4666 
L 2547 0 
L 1831 0 
z
" transform="scale(0.015625)"/>
       <path id="DejaVuSans-20" transform="scale(0.015625)"/>
       <path id="DejaVuSans-64" d="M 2906 2969 
L 2906 4863 
L 3481 4863 
L 3481 0 
L 2906 0 
L 2906 525 
Q 2725 213 2448 61 
Q 2172 -91 1784 -91 
Q 1150 -91 751 415 
Q 353 922 353 1747 
Q 353 2572 751 3078 
Q 1150 3584 1784 3584 
Q 2172 3584 2448 3432 
Q 2725 3281 2906 2969 
z
M 947 1747 
Q 947 1113 1208 752 
Q 1469 391 1925 391 
Q 2381 391 2643 752 
Q 2906 1113 2906 1747 
Q 2906 2381 2643 2742 
Q 2381 3103 1925 3103 
Q 1469 3103 1208 2742 
Q 947 2381 947 1747 
z
" transform="scale(0.015625)"/>
       <path id="DejaVuSans-69" d="M 603 3500 
L 1178 3500 
L 1178 0 
L 603 0 
L 603 3500 
z
M 603 4863 
L 1178 4863 
L 1178 4134 
L 603 4134 
L 603 4863 
z
" transform="scale(0.015625)"/>
       <path id="DejaVuSans-73" d="M 2834 3397 
L 2834 2853 
Q 2591 2978 2328 3040 
Q 2066 3103 1784 3103 
Q 1356 3103 1142 2972 
Q 928 2841 928 2578 
Q 928 2378 1081 2264 
Q 1234 2150 1697 2047 
L 1894 2003 
Q 2506 1872 2764 1633 
Q 3022 1394 3022 966 
Q 3022 478 2636 193 
Q 2250 -91 1575 -91 
Q 1294 -91 989 -36 
Q 684 19 347 128 
L 347 722 
Q 666 556 975 473 
Q 1284 391 1588 391 
Q 1994 391 2212 530 
Q 2431 669 2431 922 
Q 2431 1156 2273 1281 
Q 2116 1406 1581 1522 
L 1381 1569 
Q 847 1681 609 1914 
Q 372 2147 372 2553 
Q 372 3047 722 3315 
Q 1072 3584 1716 3584 
Q 2034 3584 2315 3537 
Q 2597 3491 2834 3397 
z
" transform="scale(0.015625)"/>
       <path id="DejaVuSans-74" d="M 1172 4494 
L 1172 3500 
L 2356 3500 
L 2356 3053 
L 1172 3053 
L 1172 1153 
Q 1172 725 1289 603 
Q 1406 481 1766 481 
L 2356 481 
L 2356 0 
L 1766 0 
Q 1100 0 847 248 
Q 594 497 594 1153 
L 594 3053 
L 172 3053 
L 172 3500 
L 594 3500 
L 594 4494 
L 1172 4494 
z
" transform="scale(0.015625)"/>
       <path id="DejaVuSans-72" d="M 2631 2963 
Q 2534 3019 2420 3045 
Q 2306 3072 2169 3072 
Q 1681 3072 1420 2755 
Q 1159 2438 1159 1844 
L 1159 0 
L 581 0 
L 581 3500 
L 1159 3500 
L 1159 2956 
Q 1341 3275 1631 3429 
Q 1922 3584 2338 3584 
Q 2397 3584 2469 3576 
Q 2541 3569 2628 3553 
L 2631 2963 
z
" transform="scale(0.015625)"/>
       <path id="DejaVuSans-62" d="M 3116 1747 
Q 3116 2381 2855 2742 
Q 2594 3103 2138 3103 
Q 1681 3103 1420 2742 
Q 1159 2381 1159 1747 
Q 1159 1113 1420 752 
Q 1681 391 2138 391 
Q 2594 391 2855 752 
Q 3116 1113 3116 1747 
z
M 1159 2969 
Q 1341 3281 1617 3432 
Q 1894 3584 2278 3584 
Q 2916 3584 3314 3078 
Q 3713 2572 3713 1747 
Q 3713 922 3314 415 
Q 2916 -91 2278 -91 
Q 1894 -91 1617 61 
Q 1341 213 1159 525 
L 1159 0 
L 581 0 
L 581 4863 
L 1159 4863 
L 1159 2969 
z
" transform="scale(0.015625)"/>
       <path id="DejaVuSans-75" d="M 544 1381 
L 544 3500 
L 1119 3500 
L 1119 1403 
Q 1119 906 1312 657 
Q 1506 409 1894 409 
Q 2359 409 2629 706 
Q 2900 1003 2900 1516 
L 2900 3500 
L 3475 3500 
L 3475 0 
L 2900 0 
L 2900 538 
Q 2691 219 2414 64 
Q 2138 -91 1772 -91 
Q 1169 -91 856 284 
Q 544 659 544 1381 
z
M 1991 3584 
L 1991 3584 
z
" transform="scale(0.015625)"/>
       <path id="DejaVuSans-6f" d="M 1959 3097 
Q 1497 3097 1228 2736 
Q 959 2375 959 1747 
Q 959 1119 1226 758 
Q 1494 397 1959 397 
Q 2419 397 2687 759 
Q 2956 1122 2956 1747 
Q 2956 2369 2687 2733 
Q 2419 3097 1959 3097 
z
M 1959 3584 
Q 2709 3584 3137 3096 
Q 3566 2609 3566 1747 
Q 3566 888 3137 398 
Q 2709 -91 1959 -91 
Q 1206 -91 779 398 
Q 353 888 353 1747 
Q 353 2609 779 3096 
Q 1206 3584 1959 3584 
z
" transform="scale(0.015625)"/>
       <path id="DejaVuSans-6e" d="M 3513 2113 
L 3513 0 
L 2938 0 
L 2938 2094 
Q 2938 2591 2744 2837 
Q 2550 3084 2163 3084 
Q 1697 3084 1428 2787 
Q 1159 2491 1159 1978 
L 1159 0 
L 581 0 
L 581 3500 
L 1159 3500 
L 1159 2956 
Q 1366 3272 1645 3428 
Q 1925 3584 2291 3584 
Q 2894 3584 3203 3211 
Q 3513 2838 3513 2113 
z
" transform="scale(0.015625)"/>
      </defs>
      <use xlink:href="#DejaVuSans-44"/>
      <use xlink:href="#DejaVuSans-56" x="75.251953"/>
      <use xlink:href="#DejaVuSans-20" x="143.660156"/>
      <use xlink:href="#DejaVuSans-64" x="175.447266"/>
      <use xlink:href="#DejaVuSans-69" x="238.923828"/>
      <use xlink:href="#DejaVuSans-73" x="266.707031"/>
      <use xlink:href="#DejaVuSans-74" x="318.806641"/>
      <use xlink:href="#DejaVuSans-72" x="358.015625"/>
      <use xlink:href="#DejaVuSans-69" x="399.128906"/>
      <use xlink:href="#DejaVuSans-62" x="426.912109"/>
      <use xlink:href="#DejaVuSans-75" x="490.388672"/>
      <use xlink:href="#DejaVuSans-74" x="553.767578"/>
      <use xlink:href="#DejaVuSans-69" x="592.976562"/>
      <use xlink:href="#DejaVuSans-6f" x="620.759766"/>
      <use xlink:href="#DejaVuSans-6e" x="681.941406"/>
     </g>
    </g>
   </g>
   <g id="matplotlib.axis_2">
    <g id="ytick_1">
     <g id="line2d_1">
      <defs>
       <path id="mc0b7fad6e0" d="M 0 0 
L -3.5 0 
" style="stroke: #000000; stroke-width: 0.8"/>
      </defs>
      <g>
       <use xlink:href="#mc0b7fad6e0" x="72" y="320.4" style="stroke: #000000; stroke-width: 0.8"/>
      </g>
     </g>
     <g id="text_2">
      <!-- 0.0 -->
      <g transform="translate(49.096875 324.199219) scale(0.1 -0.1)">
       <defs>
        <path id="DejaVuSans-30" d="M 2034 4250 
Q 1547 4250 1301 3770 
Q 1056 3291 1056 2328 
Q 1056 1369 1301 889 
Q 1547 409 2034 409 
Q 2525 409 2770 889 
Q 3016 1369 3016 2328 
Q 3016 3291 2770 3770 
Q 2525 4250 2034 4250 
z
M 2034 4750 
Q 2819 4750 3233 4129 
Q 3647 3509 3647 2328 
Q 3647 1150 3233 529 
Q 2819 -91 2034 -91 
Q 1250 -91 836 529 
Q 422 1150 422 2328 
Q 422 3509 836 4129 
Q 1250 4750 2034 4750 
z
" transform="scale(0.015625)"/>
        <path id="DejaVuSans-2e" d="M 684 794 
L 1344 794 
L 1344 0 
L 684 0 
L 684 794 
z
" transform="scale(0.015625)"/>
       </defs>
       <use xlink:href="#DejaVuSans-30"/>
       <use xlink:href="#DejaVuSans-2e" x="63.623047"/>
       <use xlink:href="#DejaVuSans-30" x="95.410156"/>
      </g>
     </g>
    </g>
    <g id="ytick_2">
     <g id="line2d_2">
      <g>
       <use xlink:href="#mc0b7fad6e0" x="72" y="260.363328" style="stroke: #000000; stroke-width: 0.8"/>
      </g>
     </g>
     <g id="text_3">
      <!-- 0.5 -->
      <g transform="translate(49.096875 264.162546) scale(0.1 -0.1)">
       <defs>
        <path id="DejaVuSans-35" d="M 691 4666 
L 3169 4666 
L 3169 4134 
L 1269 4134 
L 1269 2991 
Q 1406 3038 1543 3061 
Q 1681 3084 1819 3084 
Q 2600 3084 3056 2656 
Q 3513 2228 3513 1497 
Q 3513 744 3044 326 
Q 2575 -91 1722 -91 
Q 1428 -91 1123 -41 
Q 819 9 494 109 
L 494 744 
Q 775 591 1075 516 
Q 1375 441 1709 441 
Q 2250 441 2565 725 
Q 2881 1009 2881 1497 
Q 2881 1984 2565 2268 
Q 2250 2553 1709 2553 
Q 1456 2553 1204 2497 
Q 953 2441 691 2322 
L 691 4666 
z
" transform="scale(0.015625)"/>
       </defs>
       <use xlink:href="#DejaVuSans-30"/>
       <use xlink:href="#DejaVuSans-2e" x="63.623047"/>
       <use xlink:href="#DejaVuSans-35" x="95.410156"/>
      </g>
     </g>
    </g>
    <g id="ytick_3">
     <g id="line2d_3">
      <g>
       <use xlink:href="#mc0b7fad6e0" x="72" y="200.326655" style="stroke: #000000; stroke-width: 0.8"/>
      </g>
     </g>
     <g id="text_4">
      <!-- 1.0 -->
      <g transform="translate(49.096875 204.125874) scale(0.1 -0.1)">
       <defs>
        <path id="DejaVuSans-31" d="M 794 531 
L 1825 531 
L 1825 4091 
L 703 3866 
L 703 4441 
L 1819 4666 
L 2450 4666 
L 2450 531 
L 3481 531 
L 3481 0 
L 794 0 
L 794 531 
z
" transform="scale(0.015625)"/>
       </defs>
       <use xlink:href="#DejaVuSans-31"/>
       <use xlink:href="#DejaVuSans-2e" x="63.623047"/>
       <use xlink:href="#DejaVuSans-30" x="95.410156"/>
      </g>
     </g>
    </g>
    <g id="ytick_4">
     <g id="line2d_4">
      <g>
       <use xlink:href="#mc0b7fad6e0" x="72" y="140.289983" style="stroke: #000000; stroke-width: 0.8"/>
      </g>
     </g>
     <g id="text_5">
      <!-- 1.5 -->
      <g transform="translate(49.096875 144.089202) scale(0.1 -0.1)">
       <use xlink:href="#DejaVuSans-31"/>
       <use xlink:href="#DejaVuSans-2e" x="63.623047"/>
       <use xlink:href="#DejaVuSans-35" x="95.410156"/>
      </g>
     </g>
    </g>
    <g id="ytick_5">
     <g id="line2d_5">
      <g>
       <use xlink:href="#mc0b7fad6e0" x="72" y="80.25331" style="stroke: #000000; stroke-width: 0.8"/>
      </g>
     </g>
     <g id="text_6">
      <!-- 2.0 -->
      <g transform="translate(49.096875 84.052529) scale(0.1 -0.1)">
       <defs>
        <path id="DejaVuSans-32" d="M 1228 531 
L 3431 531 
L 3431 0 
L 469 0 
L 469 531 
Q 828 903 1448 1529 
Q 2069 2156 2228 2338 
Q 2531 2678 2651 2914 
Q 2772 3150 2772 3378 
Q 2772 3750 2511 3984 
Q 2250 4219 1831 4219 
Q 1534 4219 1204 4116 
Q 875 4013 500 3803 
L 500 4441 
Q 881 4594 1212 4672 
Q 1544 4750 1819 4750 
Q 2544 4750 2975 4387 
Q 3406 4025 3406 3419 
Q 3406 3131 3298 2873 
Q 3191 2616 2906 2266 
Q 2828 2175 2409 1742 
Q 1991 1309 1228 531 
z
" transform="scale(0.015625)"/>
       </defs>
       <use xlink:href="#DejaVuSans-32"/>
       <use xlink:href="#DejaVuSans-2e" x="63.623047"/>
       <use xlink:href="#DejaVuSans-30" x="95.410156"/>
      </g>
     </g>
    </g>
    <g id="text_7">
     <!-- Density -->
     <g transform="translate(43.017187 200.808594) rotate(-90) scale(0.1 -0.1)">
      <defs>
       <path id="DejaVuSans-65" d="M 3597 1894 
L 3597 1613 
L 953 1613 
Q 991 1019 1311 708 
Q 1631 397 2203 397 
Q 2534 397 2845 478 
Q 3156 559 3463 722 
L 3463 178 
Q 3153 47 2828 -22 
Q 2503 -91 2169 -91 
Q 1331 -91 842 396 
Q 353 884 353 1716 
Q 353 2575 817 3079 
Q 1281 3584 2069 3584 
Q 2775 3584 3186 3129 
Q 3597 2675 3597 1894 
z
M 3022 2063 
Q 3016 2534 2758 2815 
Q 2500 3097 2075 3097 
Q 1594 3097 1305 2825 
Q 1016 2553 972 2059 
L 3022 2063 
z
" transform="scale(0.015625)"/>
       <path id="DejaVuSans-79" d="M 2059 -325 
Q 1816 -950 1584 -1140 
Q 1353 -1331 966 -1331 
L 506 -1331 
L 506 -850 
L 844 -850 
Q 1081 -850 1212 -737 
Q 1344 -625 1503 -206 
L 1606 56 
L 191 3500 
L 800 3500 
L 1894 763 
L 2988 3500 
L 3597 3500 
L 2059 -325 
z
" transform="scale(0.015625)"/>
      </defs>
      <use xlink:href="#DejaVuSans-44"/>
      <use xlink:href="#DejaVuSans-65" x="77.001953"/>
      <use xlink:href="#DejaVuSans-6e" x="138.525391"/>
      <use xlink:href="#DejaVuSans-73" x="201.904297"/>
      <use xlink:href="#DejaVuSans-69" x="254.003906"/>
      <use xlink:href="#DejaVuSans-74" x="281.787109"/>
      <use xlink:href="#DejaVuSans-79" x="320.996094"/>
     </g>
    </g>
   </g>
   <g id="line2d_6">
    <path d="M 97.307307 320.374277 
L 107.377704 320.245688 
L 113.419942 320.010594 
L 117.4481 319.71835 
L 121.476259 319.256116 
L 125.504418 318.553552 
L 129.532576 317.522853 
L 131.546656 316.851895 
L 133.560735 316.057423 
L 135.574814 315.123138 
L 137.588894 314.031673 
L 139.602973 312.764753 
L 141.617052 311.303439 
L 143.631132 309.628446 
L 145.645211 307.720519 
L 147.65929 305.560863 
L 149.67337 303.131575 
L 151.687449 300.416058 
L 153.701528 297.399371 
L 155.715607 294.068508 
L 157.729687 290.412586 
L 159.743766 286.42298 
L 161.757845 282.093452 
L 163.771925 277.420355 
L 165.786004 272.403016 
L 167.800083 267.044377 
L 171.828242 255.339463 
L 175.856401 242.448936 
L 179.884559 228.672896 
L 187.940876 200.777566 
L 189.954956 194.348938 
L 191.969035 188.395372 
L 193.983114 183.052415 
L 195.997194 178.450231 
L 198.011273 174.706882 
L 200.025352 171.921775 
L 202.039432 170.169787 
L 204.053511 169.496595 
L 206.06759 169.9156 
L 208.08167 171.406718 
L 210.095749 173.917146 
L 212.109828 177.364 
L 214.123908 181.638628 
L 216.137987 186.612185 
L 218.152066 192.142048 
L 222.180225 204.271557 
L 228.222463 223.000431 
L 232.250621 234.466609 
L 234.264701 239.64227 
L 236.27878 244.376855 
L 238.292859 248.638741 
L 240.306939 252.410123 
L 242.321018 255.684497 
L 244.335097 258.464097 
L 246.349177 260.757497 
L 248.363256 262.577571 
L 250.377335 263.939917 
L 252.391415 264.861841 
L 254.405494 265.361906 
L 256.419573 265.460009 
L 258.433652 265.177905 
L 260.447732 264.540034 
L 262.461811 263.574504 
L 264.47589 262.31404 
L 266.48997 260.796732 
L 268.504049 259.066433 
L 272.532208 255.170101 
L 278.574446 249.104192 
L 280.588525 247.264207 
L 282.602604 245.609716 
L 284.616684 244.188986 
L 286.630763 243.041891 
L 288.644842 242.198471 
L 290.658922 241.67804 
L 292.673001 241.488911 
L 294.68708 241.628708 
L 296.701159 242.08525 
L 298.715239 242.837873 
L 300.729318 243.859088 
L 302.743397 245.116409 
L 304.757477 246.574198 
L 308.785635 249.942909 
L 314.827873 255.594649 
L 320.870111 261.21716 
L 324.89827 264.599249 
L 326.912349 266.111115 
L 328.926429 267.475601 
L 330.940508 268.674056 
L 332.954587 269.690649 
L 334.968666 270.513477 
L 336.982746 271.135779 
L 338.996825 271.55713 
L 341.010904 271.784468 
L 343.024984 271.832815 
L 345.039063 271.725554 
L 349.067222 271.177605 
L 355.10946 270.183556 
L 357.123539 270.004915 
L 359.137618 269.983769 
L 361.151698 270.162007 
L 363.165777 270.573795 
L 365.179856 271.243777 
L 367.193935 272.185819 
L 369.208015 273.402373 
L 371.222094 274.884492 
L 373.236173 276.612508 
L 375.250253 278.557294 
L 379.278411 282.944327 
L 391.362887 296.907212 
L 395.391046 300.833407 
L 397.405125 302.561978 
L 399.419205 304.127266 
L 401.433284 305.531144 
L 403.447363 306.779998 
L 405.461442 307.883668 
L 409.489601 309.705827 
L 413.51776 311.107701 
L 417.545918 312.198914 
L 421.574077 313.074426 
L 427.616315 314.14236 
L 439.700791 315.94917 
L 457.827505 318.520498 
L 465.883822 319.391597 
L 471.92606 319.840351 
L 479.982377 320.18601 
L 490.052774 320.352276 
L 498.109091 320.388781 
L 498.109091 320.388781 
" clip-path="url(#p413be0ed61)" style="fill: none; stroke: #bf00bf; stroke-width: 1.5; stroke-linecap: square"/>
   </g>
   <g id="line2d_7">
    <path d="M 92.290909 320.375945 
L 102.347974 320.219447 
L 108.382212 319.902701 
L 112.405038 319.496962 
L 116.427864 318.857193 
L 120.45069 317.914209 
L 124.473516 316.610985 
L 128.496341 314.912903 
L 132.519167 312.806922 
L 136.541993 310.282917 
L 140.564819 307.297935 
L 142.576232 305.599901 
L 144.587645 303.735342 
L 146.599058 301.674001 
L 148.610471 299.379758 
L 150.621883 296.81199 
L 152.633296 293.927567 
L 154.644709 290.683264 
L 156.656122 287.038363 
L 158.667535 282.95712 
L 160.678948 278.410834 
L 162.690361 273.379309 
L 164.701774 267.851628 
L 166.713187 261.826307 
L 168.7246 255.311033 
L 170.736013 248.322317 
L 174.758838 233.034957 
L 178.781664 216.287292 
L 190.850142 164.154539 
L 192.861555 156.660893 
L 194.872967 149.991102 
L 196.88438 144.331791 
L 198.895793 139.851483 
L 200.907206 136.689068 
L 202.918619 134.943612 
L 204.930032 134.666647 
L 206.941445 135.857836 
L 208.952858 138.464516 
L 210.964271 142.385143 
L 212.975684 147.476222 
L 214.987097 153.561898 
L 216.998509 160.44516 
L 221.021335 175.779969 
L 227.055574 199.836709 
L 231.0784 214.82602 
L 233.089813 221.709946 
L 235.101226 228.114047 
L 237.112639 234.010678 
L 239.124051 239.389695 
L 241.135464 244.254895 
L 243.146877 248.620467 
L 245.15829 252.507577 
L 247.169703 255.941187 
L 249.181116 258.947197 
L 251.192529 261.550065 
L 253.203942 263.771008 
L 255.215355 265.626959 
L 257.226768 267.130363 
L 259.23818 268.289871 
L 261.249593 269.111881 
L 263.261006 269.602773 
L 265.272419 269.771595 
L 267.283832 269.632843 
L 269.295245 269.208996 
L 271.306658 268.532402 
L 273.318071 267.646226 
L 277.340897 265.469424 
L 281.363722 263.202617 
L 283.375135 262.214962 
L 285.386548 261.414733 
L 287.397961 260.858968 
L 289.409374 260.591961 
L 291.420787 260.642813 
L 293.4322 261.024162 
L 295.443613 261.732151 
L 297.455026 262.747604 
L 299.466439 264.038233 
L 301.477852 265.561613 
L 305.500677 269.10698 
L 315.557742 278.588478 
L 319.580568 281.847821 
L 321.591981 283.272184 
L 323.603394 284.540884 
L 325.614806 285.640965 
L 327.626219 286.559 
L 329.637632 287.280632 
L 331.649045 287.790822 
L 333.660458 288.074836 
L 335.671871 288.119879 
L 337.683284 287.917188 
L 339.694697 287.464334 
L 341.70611 286.767471 
L 343.717523 285.843212 
L 345.728936 284.719902 
L 349.751761 282.049951 
L 353.774587 279.212266 
L 355.786 277.907539 
L 357.797413 276.779014 
L 359.808826 275.89826 
L 361.820239 275.328884 
L 363.831652 275.122555 
L 365.843065 275.31566 
L 367.854478 275.926905 
L 369.86589 276.956084 
L 371.877303 278.384139 
L 373.888716 280.174538 
L 375.900129 282.275834 
L 377.911542 284.6252 
L 381.934368 289.785276 
L 387.968607 297.633451 
L 391.991432 302.286257 
L 394.002845 304.335947 
L 396.014258 306.18272 
L 398.025671 307.82553 
L 400.037084 309.271398 
L 402.048497 310.533306 
L 404.05991 311.628081 
L 406.071323 312.574465 
L 410.094149 314.097301 
L 414.116974 315.23853 
L 418.1398 316.102951 
L 422.162626 316.763265 
L 428.196865 317.479259 
L 436.242516 318.123735 
L 464.402297 319.909441 
L 474.459362 320.247548 
L 486.527839 320.378488 
L 492.562078 320.393624 
L 492.562078 320.393624 
" clip-path="url(#p413be0ed61)" style="fill: none; stroke: #008000; stroke-width: 1.5; stroke-linecap: square"/>
   </g>
   <g id="patch_38">
    <path d="M 72 320.4 
L 72 43.2 
" style="fill: none; stroke: #000000; stroke-width: 0.8; stroke-linejoin: miter; stroke-linecap: square"/>
   </g>
   <g id="patch_39">
    <path d="M 518.4 320.4 
L 518.4 43.2 
" style="fill: none; stroke: #000000; stroke-width: 0.8; stroke-linejoin: miter; stroke-linecap: square"/>
   </g>
   <g id="patch_40">
    <path d="M 72 320.4 
L 518.4 320.4 
" style="fill: none; stroke: #000000; stroke-width: 0.8; stroke-linejoin: miter; stroke-linecap: square"/>
   </g>
   <g id="patch_41">
    <path d="M 72 43.2 
L 518.4 43.2 
" style="fill: none; stroke: #000000; stroke-width: 0.8; stroke-linejoin: miter; stroke-linecap: square"/>
   </g>
  </g>
 </g>
 <defs>
  <clipPath id="p413be0ed61">
   <rect x="72" y="43.2" width="446.4" height="277.2"/>
  </clipPath>
 </defs>
</svg>
