<?xml version="1.0" encoding="utf-8" standalone="no"?>
<!DOCTYPE svg PUBLIC "-//W3C//DTD SVG 1.1//EN"
  "http://www.w3.org/Graphics/SVG/1.1/DTD/svg11.dtd">
<svg xmlns:xlink="http://www.w3.org/1999/xlink" width="576pt" height="360pt" viewBox="0 0 576 360" xmlns="http://www.w3.org/2000/svg" version="1.1">
 <metadata>
  <rdf:RDF xmlns:dc="http://purl.org/dc/elements/1.1/" xmlns:cc="http://creativecommons.org/ns#" xmlns:rdf="http://www.w3.org/1999/02/22-rdf-syntax-ns#">
   <cc:Work>
    <dc:type rdf:resource="http://purl.org/dc/dcmitype/StillImage"/>
    <dc:date>2023-10-11T12:41:46.732130</dc:date>
    <dc:format>image/svg+xml</dc:format>
    <dc:creator>
     <cc:Agent>
      <dc:title>Matplotlib v3.7.2, https://matplotlib.org/</dc:title>
     </cc:Agent>
    </dc:creator>
   </cc:Work>
  </rdf:RDF>
 </metadata>
 <defs>
  <style type="text/css">*{stroke-linejoin: round; stroke-linecap: butt}</style>
 </defs>
 <g id="figure_1">
  <g id="patch_1">
   <path d="M 0 360 
L 576 360 
L 576 0 
L 0 0 
z
" style="fill: #ffffff"/>
  </g>
  <g id="axes_1">
   <g id="patch_2">
    <path d="M 72 320.4 
L 518.4 320.4 
L 518.4 43.2 
L 72 43.2 
z
" style="fill: #ffffff"/>
   </g>
   <g id="patch_3">
    <path d="M 159.014266 320.4 
L 176.319269 320.4 
L 176.319269 318.64098 
L 159.014266 318.64098 
z
" clip-path="url(#paff41b20d9)" style="fill: #bf00bf; opacity: 0.4"/>
   </g>
   <g id="patch_4">
    <path d="M 176.319269 320.4 
L 193.624272 320.4 
L 193.624272 302.809803 
L 176.319269 302.809803 
z
" clip-path="url(#paff41b20d9)" style="fill: #bf00bf; opacity: 0.4"/>
   </g>
   <g id="patch_5">
    <path d="M 193.624272 320.4 
L 210.929275 320.4 
L 210.929275 309.845882 
L 193.624272 309.845882 
z
" clip-path="url(#paff41b20d9)" style="fill: #bf00bf; opacity: 0.4"/>
   </g>
   <g id="patch_6">
    <path d="M 210.929275 320.4 
L 228.234278 320.4 
L 228.234278 283.460585 
L 210.929275 283.460585 
z
" clip-path="url(#paff41b20d9)" style="fill: #bf00bf; opacity: 0.4"/>
   </g>
   <g id="patch_7">
    <path d="M 228.234278 320.4 
L 245.539281 320.4 
L 245.539281 250.03921 
L 228.234278 250.03921 
z
" clip-path="url(#paff41b20d9)" style="fill: #bf00bf; opacity: 0.4"/>
   </g>
   <g id="patch_8">
    <path d="M 245.539281 320.4 
L 262.844284 320.4 
L 262.844284 190.232539 
L 245.539281 190.232539 
z
" clip-path="url(#paff41b20d9)" style="fill: #bf00bf; opacity: 0.4"/>
   </g>
   <g id="patch_9">
    <path d="M 262.844284 320.4 
L 280.149287 320.4 
L 280.149287 156.811163 
L 262.844284 156.811163 
z
" clip-path="url(#paff41b20d9)" style="fill: #bf00bf; opacity: 0.4"/>
   </g>
   <g id="patch_10">
    <path d="M 280.149287 320.4 
L 297.454289 320.4 
L 297.454289 68.860176 
L 280.149287 68.860176 
z
" clip-path="url(#paff41b20d9)" style="fill: #bf00bf; opacity: 0.4"/>
   </g>
   <g id="patch_11">
    <path d="M 297.454289 320.4 
L 314.759292 320.4 
L 314.759292 128.666847 
L 297.454289 128.666847 
z
" clip-path="url(#paff41b20d9)" style="fill: #bf00bf; opacity: 0.4"/>
   </g>
   <g id="patch_12">
    <path d="M 314.759292 320.4 
L 332.064295 320.4 
L 332.064295 163.847242 
L 314.759292 163.847242 
z
" clip-path="url(#paff41b20d9)" style="fill: #bf00bf; opacity: 0.4"/>
   </g>
   <g id="patch_13">
    <path d="M 332.064295 320.4 
L 349.369298 320.4 
L 349.369298 132.184887 
L 332.064295 132.184887 
z
" clip-path="url(#paff41b20d9)" style="fill: #bf00bf; opacity: 0.4"/>
   </g>
   <g id="patch_14">
    <path d="M 349.369298 320.4 
L 366.674301 320.4 
L 366.674301 176.160381 
L 349.369298 176.160381 
z
" clip-path="url(#paff41b20d9)" style="fill: #bf00bf; opacity: 0.4"/>
   </g>
   <g id="patch_15">
    <path d="M 366.674301 320.4 
L 383.979304 320.4 
L 383.979304 195.509598 
L 366.674301 195.509598 
z
" clip-path="url(#paff41b20d9)" style="fill: #bf00bf; opacity: 0.4"/>
   </g>
   <g id="patch_16">
    <path d="M 383.979304 320.4 
L 401.284307 320.4 
L 401.284307 184.955479 
L 383.979304 184.955479 
z
" clip-path="url(#paff41b20d9)" style="fill: #bf00bf; opacity: 0.4"/>
   </g>
   <g id="patch_17">
    <path d="M 401.284307 320.4 
L 418.58931 320.4 
L 418.58931 234.208032 
L 401.284307 234.208032 
z
" clip-path="url(#paff41b20d9)" style="fill: #bf00bf; opacity: 0.4"/>
   </g>
   <g id="patch_18">
    <path d="M 418.58931 320.4 
L 435.894313 320.4 
L 435.894313 239.485092 
L 418.58931 239.485092 
z
" clip-path="url(#paff41b20d9)" style="fill: #bf00bf; opacity: 0.4"/>
   </g>
   <g id="patch_19">
    <path d="M 435.894313 320.4 
L 453.199316 320.4 
L 453.199316 241.244111 
L 435.894313 241.244111 
z
" clip-path="url(#paff41b20d9)" style="fill: #bf00bf; opacity: 0.4"/>
   </g>
   <g id="patch_20">
    <path d="M 131.441455 320.4 
L 145.861041 320.4 
L 145.861041 317.466667 
L 131.441455 317.466667 
z
" clip-path="url(#paff41b20d9)" style="fill: #008000; opacity: 0.4"/>
   </g>
   <g id="patch_21">
    <path d="M 145.861041 320.4 
L 160.280628 320.4 
L 160.280628 317.466667 
L 145.861041 317.466667 
z
" clip-path="url(#paff41b20d9)" style="fill: #008000; opacity: 0.4"/>
   </g>
   <g id="patch_22">
    <path d="M 160.280628 320.4 
L 174.700214 320.4 
L 174.700214 318.933333 
L 160.280628 318.933333 
z
" clip-path="url(#paff41b20d9)" style="fill: #008000; opacity: 0.4"/>
   </g>
   <g id="patch_23">
    <path d="M 174.700214 320.4 
L 189.119801 320.4 
L 189.119801 310.133333 
L 174.700214 310.133333 
z
" clip-path="url(#paff41b20d9)" style="fill: #008000; opacity: 0.4"/>
   </g>
   <g id="patch_24">
    <path d="M 189.119801 320.4 
L 203.539387 320.4 
L 203.539387 308.666667 
L 189.119801 308.666667 
z
" clip-path="url(#paff41b20d9)" style="fill: #008000; opacity: 0.4"/>
   </g>
   <g id="patch_25">
    <path d="M 203.539387 320.4 
L 217.958974 320.4 
L 217.958974 302.8 
L 203.539387 302.8 
z
" clip-path="url(#paff41b20d9)" style="fill: #008000; opacity: 0.4"/>
   </g>
   <g id="patch_26">
    <path d="M 217.958974 320.4 
L 232.37856 320.4 
L 232.37856 258.8 
L 217.958974 258.8 
z
" clip-path="url(#paff41b20d9)" style="fill: #008000; opacity: 0.4"/>
   </g>
   <g id="patch_27">
    <path d="M 232.37856 320.4 
L 246.798147 320.4 
L 246.798147 239.733333 
L 232.37856 239.733333 
z
" clip-path="url(#paff41b20d9)" style="fill: #008000; opacity: 0.4"/>
   </g>
   <g id="patch_28">
    <path d="M 246.798147 320.4 
L 261.217733 320.4 
L 261.217733 179.6 
L 246.798147 179.6 
z
" clip-path="url(#paff41b20d9)" style="fill: #008000; opacity: 0.4"/>
   </g>
   <g id="patch_29">
    <path d="M 261.217733 320.4 
L 275.63732 320.4 
L 275.63732 126.8 
L 261.217733 126.8 
z
" clip-path="url(#paff41b20d9)" style="fill: #008000; opacity: 0.4"/>
   </g>
   <g id="patch_30">
    <path d="M 275.63732 320.4 
L 290.056906 320.4 
L 290.056906 56.4 
L 275.63732 56.4 
z
" clip-path="url(#paff41b20d9)" style="fill: #008000; opacity: 0.4"/>
   </g>
   <g id="patch_31">
    <path d="M 290.056906 320.4 
L 304.476493 320.4 
L 304.476493 101.866667 
L 290.056906 101.866667 
z
" clip-path="url(#paff41b20d9)" style="fill: #008000; opacity: 0.4"/>
   </g>
   <g id="patch_32">
    <path d="M 304.476493 320.4 
L 318.896079 320.4 
L 318.896079 154.666667 
L 304.476493 154.666667 
z
" clip-path="url(#paff41b20d9)" style="fill: #008000; opacity: 0.4"/>
   </g>
   <g id="patch_33">
    <path d="M 318.896079 320.4 
L 333.315665 320.4 
L 333.315665 138.533333 
L 318.896079 138.533333 
z
" clip-path="url(#paff41b20d9)" style="fill: #008000; opacity: 0.4"/>
   </g>
   <g id="patch_34">
    <path d="M 333.315665 320.4 
L 347.735252 320.4 
L 347.735252 135.6 
L 333.315665 135.6 
z
" clip-path="url(#paff41b20d9)" style="fill: #008000; opacity: 0.4"/>
   </g>
   <g id="patch_35">
    <path d="M 347.735252 320.4 
L 362.154838 320.4 
L 362.154838 185.466667 
L 347.735252 185.466667 
z
" clip-path="url(#paff41b20d9)" style="fill: #008000; opacity: 0.4"/>
   </g>
   <g id="patch_36">
    <path d="M 362.154838 320.4 
L 376.574425 320.4 
L 376.574425 166.4 
L 362.154838 166.4 
z
" clip-path="url(#paff41b20d9)" style="fill: #008000; opacity: 0.4"/>
   </g>
   <g id="patch_37">
    <path d="M 376.574425 320.4 
L 390.994011 320.4 
L 390.994011 232.4 
L 376.574425 232.4 
z
" clip-path="url(#paff41b20d9)" style="fill: #008000; opacity: 0.4"/>
   </g>
   <g id="patch_38">
    <path d="M 390.994011 320.4 
L 405.413598 320.4 
L 405.413598 150.266667 
L 390.994011 150.266667 
z
" clip-path="url(#paff41b20d9)" style="fill: #008000; opacity: 0.4"/>
   </g>
   <g id="patch_39">
    <path d="M 405.413598 320.4 
L 419.833184 320.4 
L 419.833184 239.733333 
L 405.413598 239.733333 
z
" clip-path="url(#paff41b20d9)" style="fill: #008000; opacity: 0.4"/>
   </g>
   <g id="patch_40">
    <path d="M 419.833184 320.4 
L 434.252771 320.4 
L 434.252771 276.4 
L 419.833184 276.4 
z
" clip-path="url(#paff41b20d9)" style="fill: #008000; opacity: 0.4"/>
   </g>
   <g id="patch_41">
    <path d="M 434.252771 320.4 
L 448.672357 320.4 
L 448.672357 286.666667 
L 434.252771 286.666667 
z
" clip-path="url(#paff41b20d9)" style="fill: #008000; opacity: 0.4"/>
   </g>
   <g id="matplotlib.axis_1">
    <g id="text_1">
     <!-- ML distribution -->
     <g transform="translate(258.017969 331.998438) scale(0.1 -0.1)">
      <defs>
       <path id="DejaVuSans-4d" d="M 628 4666 
L 1569 4666 
L 2759 1491 
L 3956 4666 
L 4897 4666 
L 4897 0 
L 4281 0 
L 4281 4097 
L 3078 897 
L 2444 897 
L 1241 4097 
L 1241 0 
L 628 0 
L 628 4666 
z
" transform="scale(0.015625)"/>
       <path id="DejaVuSans-4c" d="M 628 4666 
L 1259 4666 
L 1259 531 
L 3531 531 
L 3531 0 
L 628 0 
L 628 4666 
z
" transform="scale(0.015625)"/>
       <path id="DejaVuSans-20" transform="scale(0.015625)"/>
       <path id="DejaVuSans-64" d="M 2906 2969 
L 2906 4863 
L 3481 4863 
L 3481 0 
L 2906 0 
L 2906 525 
Q 2725 213 2448 61 
Q 2172 -91 1784 -91 
Q 1150 -91 751 415 
Q 353 922 353 1747 
Q 353 2572 751 3078 
Q 1150 3584 1784 3584 
Q 2172 3584 2448 3432 
Q 2725 3281 2906 2969 
z
M 947 1747 
Q 947 1113 1208 752 
Q 1469 391 1925 391 
Q 2381 391 2643 752 
Q 2906 1113 2906 1747 
Q 2906 2381 2643 2742 
Q 2381 3103 1925 3103 
Q 1469 3103 1208 2742 
Q 947 2381 947 1747 
z
" transform="scale(0.015625)"/>
       <path id="DejaVuSans-69" d="M 603 3500 
L 1178 3500 
L 1178 0 
L 603 0 
L 603 3500 
z
M 603 4863 
L 1178 4863 
L 1178 4134 
L 603 4134 
L 603 4863 
z
" transform="scale(0.015625)"/>
       <path id="DejaVuSans-73" d="M 2834 3397 
L 2834 2853 
Q 2591 2978 2328 3040 
Q 2066 3103 1784 3103 
Q 1356 3103 1142 2972 
Q 928 2841 928 2578 
Q 928 2378 1081 2264 
Q 1234 2150 1697 2047 
L 1894 2003 
Q 2506 1872 2764 1633 
Q 3022 1394 3022 966 
Q 3022 478 2636 193 
Q 2250 -91 1575 -91 
Q 1294 -91 989 -36 
Q 684 19 347 128 
L 347 722 
Q 666 556 975 473 
Q 1284 391 1588 391 
Q 1994 391 2212 530 
Q 2431 669 2431 922 
Q 2431 1156 2273 1281 
Q 2116 1406 1581 1522 
L 1381 1569 
Q 847 1681 609 1914 
Q 372 2147 372 2553 
Q 372 3047 722 3315 
Q 1072 3584 1716 3584 
Q 2034 3584 2315 3537 
Q 2597 3491 2834 3397 
z
" transform="scale(0.015625)"/>
       <path id="DejaVuSans-74" d="M 1172 4494 
L 1172 3500 
L 2356 3500 
L 2356 3053 
L 1172 3053 
L 1172 1153 
Q 1172 725 1289 603 
Q 1406 481 1766 481 
L 2356 481 
L 2356 0 
L 1766 0 
Q 1100 0 847 248 
Q 594 497 594 1153 
L 594 3053 
L 172 3053 
L 172 3500 
L 594 3500 
L 594 4494 
L 1172 4494 
z
" transform="scale(0.015625)"/>
       <path id="DejaVuSans-72" d="M 2631 2963 
Q 2534 3019 2420 3045 
Q 2306 3072 2169 3072 
Q 1681 3072 1420 2755 
Q 1159 2438 1159 1844 
L 1159 0 
L 581 0 
L 581 3500 
L 1159 3500 
L 1159 2956 
Q 1341 3275 1631 3429 
Q 1922 3584 2338 3584 
Q 2397 3584 2469 3576 
Q 2541 3569 2628 3553 
L 2631 2963 
z
" transform="scale(0.015625)"/>
       <path id="DejaVuSans-62" d="M 3116 1747 
Q 3116 2381 2855 2742 
Q 2594 3103 2138 3103 
Q 1681 3103 1420 2742 
Q 1159 2381 1159 1747 
Q 1159 1113 1420 752 
Q 1681 391 2138 391 
Q 2594 391 2855 752 
Q 3116 1113 3116 1747 
z
M 1159 2969 
Q 1341 3281 1617 3432 
Q 1894 3584 2278 3584 
Q 2916 3584 3314 3078 
Q 3713 2572 3713 1747 
Q 3713 922 3314 415 
Q 2916 -91 2278 -91 
Q 1894 -91 1617 61 
Q 1341 213 1159 525 
L 1159 0 
L 581 0 
L 581 4863 
L 1159 4863 
L 1159 2969 
z
" transform="scale(0.015625)"/>
       <path id="DejaVuSans-75" d="M 544 1381 
L 544 3500 
L 1119 3500 
L 1119 1403 
Q 1119 906 1312 657 
Q 1506 409 1894 409 
Q 2359 409 2629 706 
Q 2900 1003 2900 1516 
L 2900 3500 
L 3475 3500 
L 3475 0 
L 2900 0 
L 2900 538 
Q 2691 219 2414 64 
Q 2138 -91 1772 -91 
Q 1169 -91 856 284 
Q 544 659 544 1381 
z
M 1991 3584 
L 1991 3584 
z
" transform="scale(0.015625)"/>
       <path id="DejaVuSans-6f" d="M 1959 3097 
Q 1497 3097 1228 2736 
Q 959 2375 959 1747 
Q 959 1119 1226 758 
Q 1494 397 1959 397 
Q 2419 397 2687 759 
Q 2956 1122 2956 1747 
Q 2956 2369 2687 2733 
Q 2419 3097 1959 3097 
z
M 1959 3584 
Q 2709 3584 3137 3096 
Q 3566 2609 3566 1747 
Q 3566 888 3137 398 
Q 2709 -91 1959 -91 
Q 1206 -91 779 398 
Q 353 888 353 1747 
Q 353 2609 779 3096 
Q 1206 3584 1959 3584 
z
" transform="scale(0.015625)"/>
       <path id="DejaVuSans-6e" d="M 3513 2113 
L 3513 0 
L 2938 0 
L 2938 2094 
Q 2938 2591 2744 2837 
Q 2550 3084 2163 3084 
Q 1697 3084 1428 2787 
Q 1159 2491 1159 1978 
L 1159 0 
L 581 0 
L 581 3500 
L 1159 3500 
L 1159 2956 
Q 1366 3272 1645 3428 
Q 1925 3584 2291 3584 
Q 2894 3584 3203 3211 
Q 3513 2838 3513 2113 
z
" transform="scale(0.015625)"/>
      </defs>
      <use xlink:href="#DejaVuSans-4d"/>
      <use xlink:href="#DejaVuSans-4c" x="86.279297"/>
      <use xlink:href="#DejaVuSans-20" x="141.992188"/>
      <use xlink:href="#DejaVuSans-64" x="173.779297"/>
      <use xlink:href="#DejaVuSans-69" x="237.255859"/>
      <use xlink:href="#DejaVuSans-73" x="265.039062"/>
      <use xlink:href="#DejaVuSans-74" x="317.138672"/>
      <use xlink:href="#DejaVuSans-72" x="356.347656"/>
      <use xlink:href="#DejaVuSans-69" x="397.460938"/>
      <use xlink:href="#DejaVuSans-62" x="425.244141"/>
      <use xlink:href="#DejaVuSans-75" x="488.720703"/>
      <use xlink:href="#DejaVuSans-74" x="552.099609"/>
      <use xlink:href="#DejaVuSans-69" x="591.308594"/>
      <use xlink:href="#DejaVuSans-6f" x="619.091797"/>
      <use xlink:href="#DejaVuSans-6e" x="680.273438"/>
     </g>
    </g>
   </g>
   <g id="matplotlib.axis_2">
    <g id="ytick_1">
     <g id="line2d_1">
      <defs>
       <path id="mab5a157e5b" d="M 0 0 
L -3.5 0 
" style="stroke: #000000; stroke-width: 0.8"/>
      </defs>
      <g>
       <use xlink:href="#mab5a157e5b" x="72" y="320.4" style="stroke: #000000; stroke-width: 0.8"/>
      </g>
     </g>
     <g id="text_2">
      <!-- 0.00 -->
      <g transform="translate(42.734375 324.199219) scale(0.1 -0.1)">
       <defs>
        <path id="DejaVuSans-30" d="M 2034 4250 
Q 1547 4250 1301 3770 
Q 1056 3291 1056 2328 
Q 1056 1369 1301 889 
Q 1547 409 2034 409 
Q 2525 409 2770 889 
Q 3016 1369 3016 2328 
Q 3016 3291 2770 3770 
Q 2525 4250 2034 4250 
z
M 2034 4750 
Q 2819 4750 3233 4129 
Q 3647 3509 3647 2328 
Q 3647 1150 3233 529 
Q 2819 -91 2034 -91 
Q 1250 -91 836 529 
Q 422 1150 422 2328 
Q 422 3509 836 4129 
Q 1250 4750 2034 4750 
z
" transform="scale(0.015625)"/>
        <path id="DejaVuSans-2e" d="M 684 794 
L 1344 794 
L 1344 0 
L 684 0 
L 684 794 
z
" transform="scale(0.015625)"/>
       </defs>
       <use xlink:href="#DejaVuSans-30"/>
       <use xlink:href="#DejaVuSans-2e" x="63.623047"/>
       <use xlink:href="#DejaVuSans-30" x="95.410156"/>
       <use xlink:href="#DejaVuSans-30" x="159.033203"/>
      </g>
     </g>
    </g>
    <g id="ytick_2">
     <g id="line2d_2">
      <g>
       <use xlink:href="#mab5a157e5b" x="72" y="269.31024" style="stroke: #000000; stroke-width: 0.8"/>
      </g>
     </g>
     <g id="text_3">
      <!-- 0.02 -->
      <g transform="translate(42.734375 273.109459) scale(0.1 -0.1)">
       <defs>
        <path id="DejaVuSans-32" d="M 1228 531 
L 3431 531 
L 3431 0 
L 469 0 
L 469 531 
Q 828 903 1448 1529 
Q 2069 2156 2228 2338 
Q 2531 2678 2651 2914 
Q 2772 3150 2772 3378 
Q 2772 3750 2511 3984 
Q 2250 4219 1831 4219 
Q 1534 4219 1204 4116 
Q 875 4013 500 3803 
L 500 4441 
Q 881 4594 1212 4672 
Q 1544 4750 1819 4750 
Q 2544 4750 2975 4387 
Q 3406 4025 3406 3419 
Q 3406 3131 3298 2873 
Q 3191 2616 2906 2266 
Q 2828 2175 2409 1742 
Q 1991 1309 1228 531 
z
" transform="scale(0.015625)"/>
       </defs>
       <use xlink:href="#DejaVuSans-30"/>
       <use xlink:href="#DejaVuSans-2e" x="63.623047"/>
       <use xlink:href="#DejaVuSans-30" x="95.410156"/>
       <use xlink:href="#DejaVuSans-32" x="159.033203"/>
      </g>
     </g>
    </g>
    <g id="ytick_3">
     <g id="line2d_3">
      <g>
       <use xlink:href="#mab5a157e5b" x="72" y="218.22048" style="stroke: #000000; stroke-width: 0.8"/>
      </g>
     </g>
     <g id="text_4">
      <!-- 0.04 -->
      <g transform="translate(42.734375 222.019699) scale(0.1 -0.1)">
       <defs>
        <path id="DejaVuSans-34" d="M 2419 4116 
L 825 1625 
L 2419 1625 
L 2419 4116 
z
M 2253 4666 
L 3047 4666 
L 3047 1625 
L 3713 1625 
L 3713 1100 
L 3047 1100 
L 3047 0 
L 2419 0 
L 2419 1100 
L 313 1100 
L 313 1709 
L 2253 4666 
z
" transform="scale(0.015625)"/>
       </defs>
       <use xlink:href="#DejaVuSans-30"/>
       <use xlink:href="#DejaVuSans-2e" x="63.623047"/>
       <use xlink:href="#DejaVuSans-30" x="95.410156"/>
       <use xlink:href="#DejaVuSans-34" x="159.033203"/>
      </g>
     </g>
    </g>
    <g id="ytick_4">
     <g id="line2d_4">
      <g>
       <use xlink:href="#mab5a157e5b" x="72" y="167.13072" style="stroke: #000000; stroke-width: 0.8"/>
      </g>
     </g>
     <g id="text_5">
      <!-- 0.06 -->
      <g transform="translate(42.734375 170.929939) scale(0.1 -0.1)">
       <defs>
        <path id="DejaVuSans-36" d="M 2113 2584 
Q 1688 2584 1439 2293 
Q 1191 2003 1191 1497 
Q 1191 994 1439 701 
Q 1688 409 2113 409 
Q 2538 409 2786 701 
Q 3034 994 3034 1497 
Q 3034 2003 2786 2293 
Q 2538 2584 2113 2584 
z
M 3366 4563 
L 3366 3988 
Q 3128 4100 2886 4159 
Q 2644 4219 2406 4219 
Q 1781 4219 1451 3797 
Q 1122 3375 1075 2522 
Q 1259 2794 1537 2939 
Q 1816 3084 2150 3084 
Q 2853 3084 3261 2657 
Q 3669 2231 3669 1497 
Q 3669 778 3244 343 
Q 2819 -91 2113 -91 
Q 1303 -91 875 529 
Q 447 1150 447 2328 
Q 447 3434 972 4092 
Q 1497 4750 2381 4750 
Q 2619 4750 2861 4703 
Q 3103 4656 3366 4563 
z
" transform="scale(0.015625)"/>
       </defs>
       <use xlink:href="#DejaVuSans-30"/>
       <use xlink:href="#DejaVuSans-2e" x="63.623047"/>
       <use xlink:href="#DejaVuSans-30" x="95.410156"/>
       <use xlink:href="#DejaVuSans-36" x="159.033203"/>
      </g>
     </g>
    </g>
    <g id="ytick_5">
     <g id="line2d_5">
      <g>
       <use xlink:href="#mab5a157e5b" x="72" y="116.04096" style="stroke: #000000; stroke-width: 0.8"/>
      </g>
     </g>
     <g id="text_6">
      <!-- 0.08 -->
      <g transform="translate(42.734375 119.840179) scale(0.1 -0.1)">
       <defs>
        <path id="DejaVuSans-38" d="M 2034 2216 
Q 1584 2216 1326 1975 
Q 1069 1734 1069 1313 
Q 1069 891 1326 650 
Q 1584 409 2034 409 
Q 2484 409 2743 651 
Q 3003 894 3003 1313 
Q 3003 1734 2745 1975 
Q 2488 2216 2034 2216 
z
M 1403 2484 
Q 997 2584 770 2862 
Q 544 3141 544 3541 
Q 544 4100 942 4425 
Q 1341 4750 2034 4750 
Q 2731 4750 3128 4425 
Q 3525 4100 3525 3541 
Q 3525 3141 3298 2862 
Q 3072 2584 2669 2484 
Q 3125 2378 3379 2068 
Q 3634 1759 3634 1313 
Q 3634 634 3220 271 
Q 2806 -91 2034 -91 
Q 1263 -91 848 271 
Q 434 634 434 1313 
Q 434 1759 690 2068 
Q 947 2378 1403 2484 
z
M 1172 3481 
Q 1172 3119 1398 2916 
Q 1625 2713 2034 2713 
Q 2441 2713 2670 2916 
Q 2900 3119 2900 3481 
Q 2900 3844 2670 4047 
Q 2441 4250 2034 4250 
Q 1625 4250 1398 4047 
Q 1172 3844 1172 3481 
z
" transform="scale(0.015625)"/>
       </defs>
       <use xlink:href="#DejaVuSans-30"/>
       <use xlink:href="#DejaVuSans-2e" x="63.623047"/>
       <use xlink:href="#DejaVuSans-30" x="95.410156"/>
       <use xlink:href="#DejaVuSans-38" x="159.033203"/>
      </g>
     </g>
    </g>
    <g id="ytick_6">
     <g id="line2d_6">
      <g>
       <use xlink:href="#mab5a157e5b" x="72" y="64.9512" style="stroke: #000000; stroke-width: 0.8"/>
      </g>
     </g>
     <g id="text_7">
      <!-- 0.10 -->
      <g transform="translate(42.734375 68.750419) scale(0.1 -0.1)">
       <defs>
        <path id="DejaVuSans-31" d="M 794 531 
L 1825 531 
L 1825 4091 
L 703 3866 
L 703 4441 
L 1819 4666 
L 2450 4666 
L 2450 531 
L 3481 531 
L 3481 0 
L 794 0 
L 794 531 
z
" transform="scale(0.015625)"/>
       </defs>
       <use xlink:href="#DejaVuSans-30"/>
       <use xlink:href="#DejaVuSans-2e" x="63.623047"/>
       <use xlink:href="#DejaVuSans-31" x="95.410156"/>
       <use xlink:href="#DejaVuSans-30" x="159.033203"/>
      </g>
     </g>
    </g>
    <g id="text_8">
     <!-- Density -->
     <g transform="translate(36.654687 200.808594) rotate(-90) scale(0.1 -0.1)">
      <defs>
       <path id="DejaVuSans-44" d="M 1259 4147 
L 1259 519 
L 2022 519 
Q 2988 519 3436 956 
Q 3884 1394 3884 2338 
Q 3884 3275 3436 3711 
Q 2988 4147 2022 4147 
L 1259 4147 
z
M 628 4666 
L 1925 4666 
Q 3281 4666 3915 4102 
Q 4550 3538 4550 2338 
Q 4550 1131 3912 565 
Q 3275 0 1925 0 
L 628 0 
L 628 4666 
z
" transform="scale(0.015625)"/>
       <path id="DejaVuSans-65" d="M 3597 1894 
L 3597 1613 
L 953 1613 
Q 991 1019 1311 708 
Q 1631 397 2203 397 
Q 2534 397 2845 478 
Q 3156 559 3463 722 
L 3463 178 
Q 3153 47 2828 -22 
Q 2503 -91 2169 -91 
Q 1331 -91 842 396 
Q 353 884 353 1716 
Q 353 2575 817 3079 
Q 1281 3584 2069 3584 
Q 2775 3584 3186 3129 
Q 3597 2675 3597 1894 
z
M 3022 2063 
Q 3016 2534 2758 2815 
Q 2500 3097 2075 3097 
Q 1594 3097 1305 2825 
Q 1016 2553 972 2059 
L 3022 2063 
z
" transform="scale(0.015625)"/>
       <path id="DejaVuSans-79" d="M 2059 -325 
Q 1816 -950 1584 -1140 
Q 1353 -1331 966 -1331 
L 506 -1331 
L 506 -850 
L 844 -850 
Q 1081 -850 1212 -737 
Q 1344 -625 1503 -206 
L 1606 56 
L 191 3500 
L 800 3500 
L 1894 763 
L 2988 3500 
L 3597 3500 
L 2059 -325 
z
" transform="scale(0.015625)"/>
      </defs>
      <use xlink:href="#DejaVuSans-44"/>
      <use xlink:href="#DejaVuSans-65" x="77.001953"/>
      <use xlink:href="#DejaVuSans-6e" x="138.525391"/>
      <use xlink:href="#DejaVuSans-73" x="201.904297"/>
      <use xlink:href="#DejaVuSans-69" x="254.003906"/>
      <use xlink:href="#DejaVuSans-74" x="281.787109"/>
      <use xlink:href="#DejaVuSans-79" x="320.996094"/>
     </g>
    </g>
   </g>
   <g id="line2d_7">
    <path d="M 114.104491 320.390794 
L 129.541862 320.271789 
L 139.190219 319.974645 
L 146.908904 319.472767 
L 152.697918 318.845155 
L 156.557261 318.254156 
L 160.416604 317.487546 
L 164.275946 316.521605 
L 168.135289 315.353101 
L 173.924303 313.285333 
L 187.432003 307.95377 
L 193.221017 305.483374 
L 197.080359 303.498282 
L 199.010031 302.330977 
L 200.939702 301.01412 
L 202.869373 299.52571 
L 204.799045 297.847557 
L 206.728716 295.96623 
L 208.658387 293.873559 
L 210.588059 291.566633 
L 212.51773 289.047289 
L 214.447402 286.321137 
L 218.306744 280.281483 
L 222.166087 273.513174 
L 226.02543 266.05001 
L 229.884772 257.869851 
L 233.744115 248.907866 
L 237.603458 239.107115 
L 241.462801 228.486131 
L 245.322143 217.189333 
L 258.829843 176.626263 
L 262.689185 165.840381 
L 266.548528 155.583329 
L 270.407871 145.845505 
L 274.267214 136.711806 
L 278.126556 128.449718 
L 280.056228 124.78114 
L 281.985899 121.509097 
L 283.91557 118.701794 
L 285.845242 116.422472 
L 287.774913 114.723893 
L 289.704584 113.643458 
L 291.634256 113.199395 
L 293.563927 113.388333 
L 295.493599 114.184417 
L 297.42327 115.539956 
L 299.352941 117.387486 
L 301.282613 119.643045 
L 303.212284 122.210393 
L 307.071627 127.86383 
L 310.930969 133.525686 
L 312.860641 136.135087 
L 314.790312 138.506755 
L 316.719983 140.598049 
L 318.649655 142.388764 
L 320.579326 143.881623 
L 322.508997 145.101239 
L 324.438669 146.091553 
L 328.298012 147.631776 
L 332.157354 149.064782 
L 334.087026 149.915219 
L 336.016697 150.929169 
L 337.946368 152.143158 
L 339.87604 153.575635 
L 341.805711 155.226732 
L 343.735382 157.07976 
L 347.594725 161.259989 
L 359.172753 174.601689 
L 363.032096 178.553501 
L 366.891439 182.169482 
L 370.750781 185.486424 
L 374.610124 188.523774 
L 378.469467 191.282844 
L 382.32881 193.79306 
L 390.047495 198.62849 
L 393.906838 201.455841 
L 395.836509 203.08993 
L 397.76618 204.901134 
L 399.695852 206.898007 
L 403.555194 211.415117 
L 407.414537 216.443312 
L 413.203551 224.15721 
L 417.062894 228.884586 
L 420.922237 233.052588 
L 424.781579 236.744438 
L 430.570593 242.153667 
L 432.500265 244.166055 
L 434.429936 246.3855 
L 436.359608 248.862054 
L 438.289279 251.632165 
L 440.21895 254.715628 
L 442.148622 258.113767 
L 444.078293 261.80899 
L 447.937636 269.932472 
L 457.585992 291.469122 
L 459.515664 295.405338 
L 461.445335 299.073596 
L 463.375006 302.434104 
L 465.304678 305.460771 
L 467.234349 308.14107 
L 469.164021 310.475066 
L 471.093692 312.473765 
L 473.023363 314.157033 
L 474.953035 315.551283 
L 476.882706 316.687153 
L 478.812377 317.597344 
L 480.742049 318.314752 
L 482.67172 318.870963 
L 486.531063 319.613379 
L 490.390405 320.0187 
L 496.17942 320.285073 
L 498.109091 320.325253 
L 498.109091 320.325253 
" clip-path="url(#paff41b20d9)" style="fill: none; stroke: #bf00bf; stroke-width: 1.5; stroke-linecap: square"/>
   </g>
   <g id="line2d_8">
    <path d="M 92.290909 320.392622 
L 108.191693 320.254009 
L 118.129683 319.919041 
L 130.05527 319.245314 
L 149.93125 318.118611 
L 157.881642 317.566075 
L 161.856838 317.081303 
L 165.832034 316.34598 
L 169.80723 315.309936 
L 173.782425 313.993213 
L 187.695611 308.953269 
L 193.658405 307.100848 
L 195.646003 306.381958 
L 197.633601 305.528096 
L 199.621199 304.481089 
L 201.608797 303.183621 
L 203.596395 301.583827 
L 205.583993 299.639567 
L 207.571591 297.321969 
L 209.559189 294.617882 
L 211.546787 291.53098 
L 213.534385 288.081372 
L 215.521983 284.303679 
L 219.497179 275.953789 
L 223.472374 266.894347 
L 229.435168 252.670684 
L 233.410364 242.851915 
L 237.38556 232.506805 
L 241.360756 221.291866 
L 245.335952 208.986681 
L 249.311148 195.660493 
L 265.211932 140.558375 
L 269.187128 127.886015 
L 273.162323 115.927359 
L 275.149921 110.355859 
L 277.137519 105.191276 
L 279.125117 100.567799 
L 281.112715 96.633601 
L 283.100313 93.535415 
L 285.087911 91.40111 
L 287.075509 90.322906 
L 289.063107 90.343791 
L 291.050705 91.449162 
L 293.038303 93.564842 
L 295.025901 96.561592 
L 297.013499 100.26527 
L 299.001097 104.471098 
L 304.963891 117.938595 
L 306.951489 122.059856 
L 308.939087 125.74902 
L 310.926685 128.919742 
L 312.914283 131.53133 
L 314.901881 133.587174 
L 316.889479 135.130482 
L 318.877077 136.23794 
L 320.864674 137.011847 
L 324.83987 138.04315 
L 326.827468 138.552692 
L 328.815066 139.215502 
L 330.802664 140.129947 
L 332.790262 141.371305 
L 334.77786 142.987648 
L 336.765458 144.997765 
L 338.753056 147.391257 
L 340.740654 150.13082 
L 342.728252 153.156601 
L 346.703448 159.75257 
L 352.666242 169.758185 
L 356.641438 175.76928 
L 360.616634 181.052804 
L 364.59183 185.722904 
L 368.567026 189.925271 
L 370.554623 191.846163 
L 372.542221 193.607563 
L 374.529819 195.159424 
L 376.517417 196.443635 
L 378.505015 197.404936 
L 380.492613 198.003428 
L 382.480211 198.226624 
L 384.467809 198.098927 
L 386.455407 197.686758 
L 392.418201 195.989378 
L 394.405799 195.812794 
L 396.393397 196.114847 
L 398.380995 197.039033 
L 400.368593 198.690604 
L 402.356191 201.127246 
L 404.343789 204.355152 
L 406.331387 208.330637 
L 408.318985 212.966745 
L 410.306583 218.143589 
L 414.281779 229.550878 
L 420.244572 247.205401 
L 424.219768 258.114412 
L 428.194964 267.870327 
L 430.182562 272.303737 
L 434.157758 280.380344 
L 438.132954 287.591545 
L 442.10815 294.122345 
L 446.083346 300.040848 
L 450.058542 305.292226 
L 452.04614 307.630607 
L 454.033738 309.75697 
L 456.021336 311.660052 
L 458.008934 313.334118 
L 459.996532 314.779914 
L 461.98413 316.004793 
L 463.971728 317.022087 
L 465.959326 317.849935 
L 467.946924 318.509779 
L 469.934521 319.024762 
L 473.909717 319.712478 
L 477.884913 320.082061 
L 483.847707 320.313938 
L 487.822903 320.367481 
L 487.822903 320.367481 
" clip-path="url(#paff41b20d9)" style="fill: none; stroke: #008000; stroke-width: 1.5; stroke-linecap: square"/>
   </g>
   <g id="patch_42">
    <path d="M 72 320.4 
L 72 43.2 
" style="fill: none; stroke: #000000; stroke-width: 0.8; stroke-linejoin: miter; stroke-linecap: square"/>
   </g>
   <g id="patch_43">
    <path d="M 518.4 320.4 
L 518.4 43.2 
" style="fill: none; stroke: #000000; stroke-width: 0.8; stroke-linejoin: miter; stroke-linecap: square"/>
   </g>
   <g id="patch_44">
    <path d="M 72 320.4 
L 518.4 320.4 
" style="fill: none; stroke: #000000; stroke-width: 0.8; stroke-linejoin: miter; stroke-linecap: square"/>
   </g>
   <g id="patch_45">
    <path d="M 72 43.2 
L 518.4 43.2 
" style="fill: none; stroke: #000000; stroke-width: 0.8; stroke-linejoin: miter; stroke-linecap: square"/>
   </g>
  </g>
 </g>
 <defs>
  <clipPath id="paff41b20d9">
   <rect x="72" y="43.2" width="446.4" height="277.2"/>
  </clipPath>
 </defs>
</svg>
